999
dxfrw 0.6.3
  0
SECTION
  2
HEADER
  9
$ACADVER
  1
AC1021
  9
$DWGCODEPAGE
  3
ANSI_1252
  9
$INSBASE
 10
0
 20
0
 30
0
  9
$EXTMIN
 10
8.122884066599999
 20
201.5477610651908
 30
0
  9
$EXTMAX
 10
442.3628909083
 20
393.6277638996
 30
0
  9
$LIMMIN
 10
0
 20
0
  9
$LIMMAX
 10
450
 20
400
  9
$ORTHOMODE
 70
    0
  9
$REGENMODE
 70
    1
  9
$FILLMODE
 70
    1
  9
$QTEXTMODE
 70
    0
  9
$MIRRTEXT
 70
    1
  9
$LTSCALE
 40
1
  9
$ATTMODE
 70
    1
  9
$TEXTSIZE
 40
3.5
  9
$TRACEWID
 40
1
  9
$TEXTSTYLE
  7
Standard
  9
$CLAYER
  8
0
  9
$CELTYPE
  6
ByLayer
  9
$CECOLOR
 62
  256
  9
$CELTSCALE
 40
1
  9
$DISPSILH
 70
    0
  9
$DIMSCALE
 40
1
  9
$DIMASZ
 40
3.302
  9
$DIMEXO
 40
1
  9
$DIMDLI
 40
3.75
  9
$DIMRND
 40
0
  9
$DIMDLE
 40
0
  9
$DIMEXE
 40
1
  9
$DIMTP
 40
0
  9
$DIMTM
 40
0
  9
$DIMTXT
 40
3.5
  9
$DIMCEN
 40
2.5
  9
$DIMTSZ
 40
0
  9
$DIMTOL
 70
    0
  9
$DIMLIM
 70
    0
  9
$DIMTIH
 70
    1
  9
$DIMTOH
 70
    1
  9
$DIMSE1
 70
    0
  9
$DIMSE2
 70
    0
  9
$DIMTAD
 70
    1
  9
$DIMZIN
 70
    0
  9
$DIMBLK
  1

  9
$DIMASO
 70
    1
  9
$DIMSHO
 70
    1
  9
$DIMPOST
  1

  9
$DIMAPOST
  1

  9
$DIMALT
 70
    0
  9
$DIMALTD
 70
    3
  9
$DIMALTF
 40
0.0393700787
  9
$DIMLFAC
 40
1
  9
$DIMTOFL
 70
    1
  9
$DIMTVP
 40
0
  9
$DIMTIX
 70
    0
  9
$DIMSOXD
 70
    0
  9
$DIMSAH
 70
    0
  9
$DIMBLK1
  1

  9
$DIMBLK2
  1

  9
$DIMSTYLE
  2
ISO-25
  9
$DIMCLRD
 70
    0
  9
$DIMCLRE
 70
    0
  9
$DIMCLRT
 70
    0
  9
$DIMTFAC
 40
1
  9
$DIMGAP
 40
1.524
  9
$DIMJUST
 70
    0
  9
$DIMSD1
 70
    0
  9
$DIMSD2
 70
    0
  9
$DIMTOLJ
 70
    0
  9
$DIMTZIN
 70
    0
  9
$DIMALTZ
 70
    0
  9
$DIMALTTZ
 70
    0
  9
$DIMUPT
 70
    0
  9
$DIMDEC
 70
    2
  9
$DIMTDEC
 70
    2
  9
$DIMALTU
 70
    2
  9
$DIMALTTD
 70
    3
  9
$DIMTXSTY
  7
Standard
  9
$DIMAUNIT
 70
    0
  9
$DIMADEC
 70
    0
  9
$DIMALTRND
 40
0
  9
$DIMAZIN
 70
    0
  9
$DIMDSEP
 70
   44
  9
$DIMATFIT
 70
    3
  9
$DIMFRAC
 70
    0
  9
$DIMLDRBLK
  1

  9
$DIMLUNIT
 70
    2
  9
$DIMLWD
 70
   -2
  9
$DIMLWE
 70
   -2
  9
$DIMTMOVE
 70
    0
  9
$DIMFXL
 40
1
  9
$DIMFXLON
 70
    0
  9
$DIMJOGANG
 40
0.7854
  9
$DIMTFILL
 70
    0
  9
$DIMTFILLCLR
 70
    0
  9
$DIMARCSYM
 70
    0
  9
$DIMLTYPE
  6

  9
$DIMLTEX1
  6

  9
$DIMLTEX2
  6

  9
$LUNITS
 70
    2
  9
$LUPREC
 70
    2
  9
$SKETCHINC
 40
1
  9
$FILLETRAD
 40
10
  9
$AUNITS
 70
    0
  9
$AUPREC
 70
    0
  9
$MENU
  1
.
  9
$ELEVATION
 40
0
  9
$PELEVATION
 40
0
  9
$THICKNESS
 40
0
  9
$LIMCHECK
 70
    0
  9
$CHAMFERA
 40
0
  9
$CHAMFERB
 40
0
  9
$CHAMFERC
 40
0
  9
$CHAMFERD
 40
0
  9
$SKPOLY
 70
    0
  9
$USRTIMER
 70
    1
  9
$ANGBASE
 50
0
  9
$ANGDIR
 70
    0
  9
$PDMODE
 70
    0
  9
$PDSIZE
 40
-1
  9
$PLINEWID
 40
0
  9
$SPLFRAME
 70
    0
  9
$SPLINETYPE
 70
    6
  9
$SPLINESEGS
 70
    8
  9
$HANDSEED
  5
20000
  9
$SURFTAB1
 70
    6
  9
$SURFTAB2
 70
    6
  9
$SURFTYPE
 70
    6
  9
$SURFU
 70
    6
  9
$SURFV
 70
    6
  9
$UCSBASE
  2

  9
$UCSNAME
  2

  9
$UCSORG
 10
0
 20
0
 30
0
  9
$UCSXDIR
 10
1
 20
0
 30
0
  9
$UCSYDIR
 10
0
 20
1
 30
0
  9
$UCSORTHOREF
  2

  9
$UCSORTHOVIEW
 70
    0
  9
$UCSORGTOP
 10
0
 20
0
 30
0
  9
$UCSORGBOTTOM
 10
0
 20
0
 30
0
  9
$UCSORGLEFT
 10
0
 20
0
 30
0
  9
$UCSORGRIGHT
 10
0
 20
0
 30
0
  9
$UCSORGFRONT
 10
0
 20
0
 30
0
  9
$UCSORGBACK
 10
0
 20
0
 30
0
  9
$PUCSBASE
  2

  9
$PUCSNAME
  2

  9
$PUCSORG
 10
0
 20
0
 30
0
  9
$PUCSXDIR
 10
1
 20
0
 30
0
  9
$PUCSYDIR
 10
0
 20
1
 30
0
  9
$PUCSORTHOREF
  2

  9
$PUCSORTHOVIEW
 70
    0
  9
$PUCSORGTOP
 10
0
 20
0
 30
0
  9
$PUCSORGBOTTOM
 10
0
 20
0
 30
0
  9
$PUCSORGLEFT
 10
0
 20
0
 30
0
  9
$PUCSORGRIGHT
 10
0
 20
0
 30
0
  9
$PUCSORGFRONT
 10
0
 20
0
 30
0
  9
$PUCSORGBACK
 10
0
 20
0
 30
0
  9
$USERI1
 70
    0
  9
$USERI2
 70
    0
  9
$USERI3
 70
    0
  9
$USERI4
 70
    0
  9
$USERI5
 70
    0
  9
$USERR1
 40
0
  9
$USERR2
 40
0
  9
$USERR3
 40
0
  9
$USERR4
 40
0
  9
$USERR5
 40
0
  9
$WORLDVIEW
 70
    1
  9
$SHADEDGE
 70
    3
  9
$SHADEDIF
 70
   70
  9
$TILEMODE
 70
    1
  9
$MAXACTVP
 70
   64
  9
$PINSBASE
 10
0
 20
0
 30
0
  9
$PLIMCHECK
 70
    0
  9
$PEXTMIN
 10
1e+20
 20
1e+20
 30
1e+20
  9
$PEXTMAX
 10
-1e+20
 20
-1e+20
 30
-1e+20
  9
$GRIDMODE
 70
    0
  9
$SNAPSTYLE
 70
    0
  9
$PLIMMIN
 10
0
 20
0
  9
$PLIMMAX
 10
420
 20
297
  9
$UNITMODE
 70
    0
  9
$VISRETAIN
 70
    1
  9
$PLINEGEN
 70
    0
  9
$PSLTSCALE
 70
    1
  9
$TREEDEPTH
 70
 3020
  9
$CMLSTYLE
  2
Standard
  9
$CMLJUST
 70
    0
  9
$CMLSCALE
 40
20
  9
$PROXYGRAPHICS
 70
    1
  9
$MEASUREMENT
 70
    1
  9
$CELWEIGHT
370
   -1
  9
$ENDCAPS
280
    0
  9
$JOINSTYLE
280
    0
  9
$LWDISPLAY
290
    1
  9
$INSUNITS
 70
    4
  9
$HYPERLINKBASE
  1

  9
$STYLESHEET
  1

  9
$XEDIT
290
    1
  9
$CEPSNTYPE
380
    0
  9
$PSTYLEMODE
290
    1
  9
$EXTNAMES
290
    1
  9
$PSVPSCALE
 40
0
  9
$OLESTARTUP
290
    0
  9
$SORTENTS
280
  127
  9
$INDEXCTL
280
    0
  9
$HIDETEXT
280
    1
  9
$XCLIPFRAME
290
    0
  9
$HALOGAP
280
    0
  9
$OBSCOLOR
 70
  257
  9
$OBSLTYPE
280
    0
  9
$INTERSECTIONDISPLAY
280
    0
  9
$INTERSECTIONCOLOR
 70
  257
  9
$DIMASSOC
280
    1
  9
$PROJECTNAME
  1

  9
$CAMERADISPLAY
290
    0
  9
$LENSLENGTH
 40
50
  9
$CAMERAHEIGHT
 40
0
  9
$STEPSPERSEC
 40
2
  9
$STEPSIZE
 40
50
  9
$3DDWFPREC
 40
2
  9
$PSOLWIDTH
 40
5
  9
$PSOLHEIGHT
 40
80
  9
$LOFTANG1
 40
1.570796326794897
  9
$LOFTANG2
 40
1.570796326794897
  9
$LOFTMAG1
 40
0
  9
$LOFTMAG2
 40
0
  9
$LOFTPARAM
 70
    7
  9
$LOFTNORMALS
280
    1
  9
$LATITUDE
 40
1
  9
$LONGITUDE
 40
1
  9
$NORTHDIRECTION
 40
0
  9
$TIMEZONE
 70
-8000
  9
$LIGHTGLYPHDISPLAY
280
    1
  9
$TILEMODELIGHTSYNCH
280
    1
  9
$SOLIDHIST
280
    1
  9
$SHOWHIST
280
    1
  9
$DWFFRAME
280
    2
  9
$DGNFRAME
280
    0
  9
$REALWORLDSCALE
290
    1
  9
$INTERFERECOLOR
 62
    1
  9
$CSHADOW
280
    0
  9
$SHADOWPLANELOCATION
 40
0
  0
ENDSEC
  0
SECTION
  2
CLASSES
  0
ENDSEC
  0
SECTION
  2
TABLES
  0
TABLE
  2
VPORT
  5
8
330
0
100
AcDbSymbolTable
 70
    1
  0
VPORT
  5
31
330
2
100
AcDbSymbolTableRecord
100
AcDbViewportTableRecord
  2
*ACTIVE
 70
    0
 10
0
 20
0
 11
1
 21
1
 12
222.3230086841735
 22
212.6201069768946
 13
0
 23
0
 14
10
 24
10
 15
10
 25
10
 16
0
 26
0
 36
1
 17
0
 27
0
 37
0
 40
255.9316102499657
 41
1.718681318681319
 42
50
 43
0
 44
0
 50
0
 51
0
 71
    0
 72
  100
 73
    1
 74
    3
 75
    0
 76
    0
 77
    0
 78
    0
281
    0
 65
    1
110
0
120
0
130
0
111
1
121
0
131
0
112
0
122
1
132
0
 79
    0
146
0
348
10020
 60
    7
 61
    5
292
1
282
    1
141
0
142
0
 63
  250
421
3358443
  0
ENDTAB
  0
TABLE
  2
LTYPE
  5
5
330
0
100
AcDbSymbolTable
 70
    4
  0
LTYPE
  5
14
330
5
100
AcDbSymbolTableRecord
100
AcDbLinetypeTableRecord
  2
ByBlock
 70
    0
  3

 72
   65
 73
    0
 40
0
  0
LTYPE
  5
15
330
5
100
AcDbSymbolTableRecord
100
AcDbLinetypeTableRecord
  2
ByLayer
 70
    0
  3

 72
   65
 73
    0
 40
0
  0
LTYPE
  5
16
330
5
100
AcDbSymbolTableRecord
100
AcDbLinetypeTableRecord
  2
Continuous
 70
    0
  3
Solid line
 72
   65
 73
    0
 40
0
  0
LTYPE
  5
32
330
5
100
AcDbSymbolTableRecord
100
AcDbLinetypeTableRecord
  2
DOT
 70
    0
  3
Dot . . . . . . . . . . . . . . . . . . . . . .
 72
   65
 73
    2
 40
6.35
 49
0
 74
    0
 49
-6.35
 74
    0
  0
LTYPE
  5
33
330
5
100
AcDbSymbolTableRecord
100
AcDbLinetypeTableRecord
  2
DOTTINY
 70
    0
  3
Dot (.15x) .....................................
 72
   65
 73
    2
 40
0.9525
 49
0
 74
    0
 49
-0.9525
 74
    0
  0
LTYPE
  5
34
330
5
100
AcDbSymbolTableRecord
100
AcDbLinetypeTableRecord
  2
DOT2
 70
    0
  3
Dot (.5x) .....................................
 72
   65
 73
    2
 40
3.175
 49
0
 74
    0
 49
-3.175
 74
    0
  0
LTYPE
  5
35
330
5
100
AcDbSymbolTableRecord
100
AcDbLinetypeTableRecord
  2
DOTX2
 70
    0
  3
Dot (2x) .  .  .  .  .  .  .  .  .  .  .  .  .
 72
   65
 73
    2
 40
12.7
 49
0
 74
    0
 49
-12.7
 74
    0
  0
LTYPE
  5
36
330
5
100
AcDbSymbolTableRecord
100
AcDbLinetypeTableRecord
  2
DASHED
 70
    0
  3
Dashed _ _ _ _ _ _ _ _ _ _ _ _ _ _ _ _ _
 72
   65
 73
    2
 40
19.05
 49
12.7
 74
    0
 49
-6.35
 74
    0
  0
LTYPE
  5
37
330
5
100
AcDbSymbolTableRecord
100
AcDbLinetypeTableRecord
  2
DASHEDTINY
 70
    0
  3
Dashed (.15x) _ _ _ _ _ _ _ _ _ _ _ _ _ _ _ _ _
 72
   65
 73
    2
 40
2.8575
 49
1.905
 74
    0
 49
-0.9525
 74
    0
  0
LTYPE
  5
38
330
5
100
AcDbSymbolTableRecord
100
AcDbLinetypeTableRecord
  2
DASHED2
 70
    0
  3
Dashed (.5x) _ _ _ _ _ _ _ _ _ _ _ _ _ _ _ _ _
 72
   65
 73
    2
 40
9.524999999999999
 49
6.35
 74
    0
 49
-3.175
 74
    0
  0
LTYPE
  5
39
330
5
100
AcDbSymbolTableRecord
100
AcDbLinetypeTableRecord
  2
DASHEDX2
 70
    0
  3
Dashed (2x) ____  ____  ____  ____  ____  ___
 72
   65
 73
    2
 40
38.09999999999999
 49
25.4
 74
    0
 49
-12.7
 74
    0
  0
LTYPE
  5
3A
330
5
100
AcDbSymbolTableRecord
100
AcDbLinetypeTableRecord
  2
DASHDOT
 70
    0
  3
Dash dot __ . __ . __ . __ . __ . __ . __ . __
 72
   65
 73
    4
 40
25.4
 49
12.7
 74
    0
 49
-6.35
 74
    0
 49
0
 74
    0
 49
-6.35
 74
    0
  0
LTYPE
  5
3B
330
5
100
AcDbSymbolTableRecord
100
AcDbLinetypeTableRecord
  2
DASHDOTTINY
 70
    0
  3
Dash dot (.15x) _._._._._._._._._._._._._._._.
 72
   65
 73
    4
 40
3.81
 49
1.905
 74
    0
 49
-0.9525
 74
    0
 49
0
 74
    0
 49
-0.9525
 74
    0
  0
LTYPE
  5
3C
330
5
100
AcDbSymbolTableRecord
100
AcDbLinetypeTableRecord
  2
DASHDOT2
 70
    0
  3
Dash dot (.5x) _._._._._._._._._._._._._._._.
 72
   65
 73
    4
 40
12.7
 49
6.35
 74
    0
 49
-3.175
 74
    0
 49
0
 74
    0
 49
-3.175
 74
    0
  0
LTYPE
  5
3D
330
5
100
AcDbSymbolTableRecord
100
AcDbLinetypeTableRecord
  2
DASHDOTX2
 70
    0
  3
Dash dot (2x) ____  .  ____  .  ____  .  ___
 72
   65
 73
    4
 40
50.8
 49
25.4
 74
    0
 49
-12.7
 74
    0
 49
0
 74
    0
 49
-12.7
 74
    0
  0
LTYPE
  5
3E
330
5
100
AcDbSymbolTableRecord
100
AcDbLinetypeTableRecord
  2
DIVIDE
 70
    0
  3
Divide ____ . . ____ . . ____ . . ____ . . ____
 72
   65
 73
    6
 40
31.75
 49
12.7
 74
    0
 49
-6.35
 74
    0
 49
0
 74
    0
 49
-6.35
 74
    0
 49
0
 74
    0
 49
-6.35
 74
    0
  0
LTYPE
  5
3F
330
5
100
AcDbSymbolTableRecord
100
AcDbLinetypeTableRecord
  2
DIVIDETINY
 70
    0
  3
Divide (.15x) __..__..__..__..__..__..__..__.._
 72
   65
 73
    6
 40
4.7625
 49
1.905
 74
    0
 49
-0.9525
 74
    0
 49
0
 74
    0
 49
-0.9525
 74
    0
 49
0
 74
    0
 49
-0.9525
 74
    0
  0
LTYPE
  5
40
330
5
100
AcDbSymbolTableRecord
100
AcDbLinetypeTableRecord
  2
DIVIDE2
 70
    0
  3
Divide (.5x) __..__..__..__..__..__..__..__.._
 72
   65
 73
    6
 40
15.875
 49
6.35
 74
    0
 49
-3.175
 74
    0
 49
0
 74
    0
 49
-3.175
 74
    0
 49
0
 74
    0
 49
-3.175
 74
    0
  0
LTYPE
  5
41
330
5
100
AcDbSymbolTableRecord
100
AcDbLinetypeTableRecord
  2
DIVIDEX2
 70
    0
  3
Divide (2x) ________  .  .  ________  .  .  _
 72
   65
 73
    6
 40
63.5
 49
25.4
 74
    0
 49
-12.7
 74
    0
 49
0
 74
    0
 49
-12.7
 74
    0
 49
0
 74
    0
 49
-12.7
 74
    0
  0
LTYPE
  5
42
330
5
100
AcDbSymbolTableRecord
100
AcDbLinetypeTableRecord
  2
BORDER
 70
    0
  3
Border __ __ . __ __ . __ __ . __ __ . __ __ .
 72
   65
 73
    6
 40
44.45
 49
12.7
 74
    0
 49
-6.35
 74
    0
 49
12.7
 74
    0
 49
-6.35
 74
    0
 49
0
 74
    0
 49
-6.35
 74
    0
  0
LTYPE
  5
43
330
5
100
AcDbSymbolTableRecord
100
AcDbLinetypeTableRecord
  2
BORDERTINY
 70
    0
  3
Border (.15x) __.__.__.__.__.__.__.__.__.__.__.
 72
   65
 73
    6
 40
6.6675
 49
1.905
 74
    0
 49
-0.9525
 74
    0
 49
1.905
 74
    0
 49
-0.9525
 74
    0
 49
0
 74
    0
 49
-0.9525
 74
    0
  0
LTYPE
  5
44
330
5
100
AcDbSymbolTableRecord
100
AcDbLinetypeTableRecord
  2
BORDER2
 70
    0
  3
Border (.5x) __.__.__.__.__.__.__.__.__.__.__.
 72
   65
 73
    6
 40
22.225
 49
6.35
 74
    0
 49
-3.175
 74
    0
 49
6.35
 74
    0
 49
-3.175
 74
    0
 49
0
 74
    0
 49
-3.175
 74
    0
  0
LTYPE
  5
45
330
5
100
AcDbSymbolTableRecord
100
AcDbLinetypeTableRecord
  2
BORDERX2
 70
    0
  3
Border (2x) ____  ____  .  ____  ____  .  ___
 72
   65
 73
    6
 40
88.89999999999999
 49
25.4
 74
    0
 49
-12.7
 74
    0
 49
25.4
 74
    0
 49
-12.7
 74
    0
 49
0
 74
    0
 49
-12.7
 74
    0
  0
LTYPE
  5
46
330
5
100
AcDbSymbolTableRecord
100
AcDbLinetypeTableRecord
  2
CENTER
 70
    0
  3
Center ____ _ ____ _ ____ _ ____ _ ____ _ ____
 72
   65
 73
    4
 40
50.8
 49
31.75
 74
    0
 49
-6.35
 74
    0
 49
6.35
 74
    0
 49
-6.35
 74
    0
  0
LTYPE
  5
47
330
5
100
AcDbSymbolTableRecord
100
AcDbLinetypeTableRecord
  2
CENTERTINY
 70
    0
  3
Center (.15x) ___ _ ___ _ ___ _ ___ _ ___ _ ___
 72
   65
 73
    4
 40
7.619999999999999
 49
4.7625
 74
    0
 49
-0.9525
 74
    0
 49
0.9525
 74
    0
 49
-0.9525
 74
    0
  0
LTYPE
  5
48
330
5
100
AcDbSymbolTableRecord
100
AcDbLinetypeTableRecord
  2
CENTER2
 70
    0
  3
Center (.5x) ___ _ ___ _ ___ _ ___ _ ___ _ ___
 72
   65
 73
    4
 40
28.575
 49
19.05
 74
    0
 49
-3.175
 74
    0
 49
3.175
 74
    0
 49
-3.175
 74
    0
  0
LTYPE
  5
49
330
5
100
AcDbSymbolTableRecord
100
AcDbLinetypeTableRecord
  2
CENTERX2
 70
    0
  3
Center (2x) ________  __  ________  __  _____
 72
   65
 73
    4
 40
101.6
 49
63.5
 74
    0
 49
-12.7
 74
    0
 49
12.7
 74
    0
 49
-12.7
 74
    0
  0
ENDTAB
  0
TABLE
  2
LAYER
  5
2
330
0
100
AcDbSymbolTable
 70
    1
  0
LAYER
  5
10
330
2
100
AcDbSymbolTableRecord
100
AcDbLayerTableRecord
  2
0
 70
    0
 62
    7
  6
CONTINUOUS
370
   -3
390
F
  0
ENDTAB
  0
TABLE
  2
STYLE
  5
3
330
0
100
AcDbSymbolTable
 70
    3
  0
STYLE
  5
4A
330
2
100
AcDbSymbolTableRecord
100
AcDbTextStyleTableRecord
  2
Standard
 70
    0
 40
0
 41
1
 50
0
 71
    0
 42
1
  3
txt
  4

  0
ENDTAB
  0
TABLE
  2
VIEW
  5
6
330
0
100
AcDbSymbolTable
 70
    0
  0
ENDTAB
  0
TABLE
  2
UCS
  5
7
330
0
100
AcDbSymbolTable
 70
    0
  0
ENDTAB
  0
TABLE
  2
APPID
  5
9
330
0
100
AcDbSymbolTable
 70
    1
  0
APPID
  5
12
330
9
100
AcDbSymbolTableRecord
100
AcDbRegAppTableRecord
  2
ACAD
 70
    0
  0
APPID
  5
4B
330
9
100
AcDbSymbolTableRecord
100
AcDbRegAppTableRecord
  2
LibreCad
 70
    0
  0
ENDTAB
  0
TABLE
  2
DIMSTYLE
  5
A
330
0
100
AcDbSymbolTable
 70
    1
100
AcDbDimStyleTable
 71
    1
  0
DIMSTYLE
105
4C
330
A
100
AcDbSymbolTableRecord
100
AcDbDimStyleTableRecord
  2
Standard
 70
    0
 40
1
 41
3.302
 42
1
 43
0.38
 44
1
 45
0
 46
0
 47
0
 48
0
 49
1
140
3.5
141
0.09
142
0
143
25.4
144
1
145
0
146
1
147
1.524
148
0
 71
    0
 72
    0
 73
    1
 74
    1
 75
    0
 76
    0
 77
    0
 78
    0
 79
    0
170
    0
171
    2
172
    0
173
    0
174
    0
175
    0
176
    0
177
    0
178
    0
179
    0
271
    2
272
    4
273
    2
274
    2
275
    0
276
    0
277
    2
278
   44
279
    0
280
    0
281
    0
282
    0
283
    1
284
    0
285
    0
286
    0
288
    0
289
    3
340
Standard
341

371
   -2
372
   -2
  0
ENDTAB
  0
TABLE
  2
BLOCK_RECORD
  5
1
330
0
100
AcDbSymbolTable
 70
    2
  0
BLOCK_RECORD
  5
1F
330
1
100
AcDbSymbolTableRecord
100
AcDbBlockTableRecord
  2
*Model_Space
 70
    0
280
    1
281
    0
  0
BLOCK_RECORD
  5
1E
330
1
100
AcDbSymbolTableRecord
100
AcDbBlockTableRecord
  2
*Paper_Space
 70
    0
280
    1
281
    0
  0
BLOCK_RECORD
  5
4D
330
1
100
AcDbSymbolTableRecord
100
AcDbBlockTableRecord
  2
SW_NOTE_0
 70
    0
280
    1
281
    0
  0
ENDTAB
  0
ENDSEC
  0
SECTION
  2
BLOCKS
  0
BLOCK
  5
20
330
1F
100
AcDbEntity
  8
0
100
AcDbBlockBegin
  2
*Model_Space
 70
    0
 10
0
 20
0
 30
0
  3
*Model_Space
  1

  0
ENDBLK
  5
21
330
1F
100
AcDbEntity
  8
0
100
AcDbBlockEnd
  0
BLOCK
  5
1C
330
1B
100
AcDbEntity
  8
0
100
AcDbBlockBegin
  2
*Paper_Space
 70
    0
 10
0
 20
0
 30
0
  3
*Paper_Space
  1

  0
ENDBLK
  5
1D
330
1F
100
AcDbEntity
  8
0
100
AcDbBlockEnd
  0
BLOCK
  5
4E
330
4D
100
AcDbEntity
  8
0
100
AcDbBlockBegin
  2
SW_NOTE_0
 70
    0
 10
0
 20
0
  3
SW_NOTE_0
  1

  0
ENDBLK
  5
4F
330
4D
100
AcDbEntity
  8
0
100
AcDbBlockEnd
  0
ENDSEC
  0
SECTION
  2
ENTITIES
  0
CIRCLE
  5
50
100
AcDbEntity
  8
0
  6
CONTINUOUS
 62
    7
370
   15
100
AcDbCircle
 10
16.7428843746
 20
386.6077610652
 40
1.439999999999998
  0
CIRCLE
  5
51
100
AcDbEntity
  8
0
  6
CONTINUOUS
 62
    7
370
   15
100
AcDbCircle
 10
47.7428843746
 20
386.6077610652
 40
1.439999999999998
  0
CIRCLE
  5
52
100
AcDbEntity
  8
0
  6
CONTINUOUS
 62
    7
370
   15
100
AcDbCircle
 10
55.7428843746
 20
297.5877610652
 40
1.439999999999998
  0
CIRCLE
  5
53
100
AcDbEntity
  8
0
  6
CONTINUOUS
 62
    7
370
   15
100
AcDbCircle
 10
16.7428843746
 20
208.5677610652
 40
1.439999999999998
  0
CIRCLE
  5
54
100
AcDbEntity
  8
0
  6
CONTINUOUS
 62
    7
370
   15
100
AcDbCircle
 10
47.7428843746
 20
208.5677610652
 40
1.439999999999998
  0
CIRCLE
  5
55
100
AcDbEntity
  8
0
  6
CONTINUOUS
 62
    7
370
   15
100
AcDbCircle
 10
439.7428843746
 20
297.5877610652
 40
1.439999999999998
  0
ARC
  5
56
100
AcDbEntity
  8
0
  6
CONTINUOUS
 62
    7
370
   15
100
AcDbCircle
 10
414.2897927244
 20
200.5477610652
 40
11.94000000000017
100
AcDbArc
 50
4.8042692246
 51
90
  0
LINE
  5
57
100
AcDbEntity
  8
0
  6
CONTINUOUS
 62
    7
370
   15
100
AcDbLine
 10
70.31597323139999
 20
212.4877611051
 11
414.2897886725
 21
212.4877611051
  0
ARC
  5
58
100
AcDbEntity
  8
0
  6
CONTINUOUS
 62
    7
370
   15
100
AcDbCircle
 10
70.3159760249
 20
200.5477610652
 40
11.94000000000001
100
AcDbArc
 50
90
 51
175.1957307754
  0
LINE
  5
59
100
AcDbEntity
  8
0
  6
CONTINUOUS
 62
    7
370
   15
100
AcDbLine
 10
8.122884066599999
 20
201.5477611559
 11
58.4179250093
 21
201.5477611559
  0
LINE
  5
5A
100
AcDbEntity
  8
0
  6
CONTINUOUS
 62
    7
370
   15
100
AcDbLine
 10
8.122884066599999
 20
221.7174667741
 11
8.122884066599999
 21
201.5477611559
  0
LINE
  5
5B
100
AcDbEntity
  8
0
  6
CONTINUOUS
 62
    7
370
   15
100
AcDbLine
 10
11.1228845583
 20
224.7174672658
 11
8.122884066599999
 21
221.7174667741
  0
LINE
  5
5C
100
AcDbEntity
  8
0
  6
CONTINUOUS
 62
    7
370
   15
100
AcDbLine
 10
11.1228845583
 20
370.4580526674
 11
11.1228845583
 21
224.7174672658
  0
LINE
  5
5D
100
AcDbEntity
  8
0
  6
CONTINUOUS
 62
    7
370
   15
100
AcDbLine
 10
8.122884066599999
 20
373.4580587471
 11
11.1228845583
 21
370.4580526674
  0
LINE
  5
5E
100
AcDbEntity
  8
0
  6
CONTINUOUS
 62
    7
370
   15
100
AcDbLine
 10
8.122884066599999
 20
393.6277638996
 11
8.122884066599999
 21
373.4580587471
  0
LINE
  5
5F
100
AcDbEntity
  8
0
  6
CONTINUOUS
 62
    7
370
   15
100
AcDbLine
 10
58.4179250093
 20
393.6277638996
 11
8.122884066599999
 21
393.6277638996
  0
ARC
  5
60
100
AcDbEntity
  8
0
  6
CONTINUOUS
 62
    7
370
   15
100
AcDbCircle
 10
70.3159760249
 20
394.6277610652
 40
11.94
100
AcDbArc
 50
184.8042692246
 51
270
  0
LINE
  5
61
100
AcDbEntity
  8
0
  6
CONTINUOUS
 62
    7
370
   15
100
AcDbLine
 10
414.2897886725
 20
382.6877634848
 11
70.31597323139999
 21
382.6877634848
  0
ARC
  5
62
100
AcDbEntity
  8
0
  6
CONTINUOUS
 62
    7
370
   15
100
AcDbCircle
 10
414.2897927244
 20
394.6277610652
 40
11.93999999999954
100
AcDbArc
 50
270
 51
355.1957307754
  0
LINE
  5
63
100
AcDbEntity
  8
0
  6
CONTINUOUS
 62
    7
370
   15
100
AcDbLine
 10
442.3628909083
 20
393.6277638996
 11
426.187829444
 21
393.6277638996
  0
LINE
  5
64
100
AcDbEntity
  8
0
  6
CONTINUOUS
 62
    7
370
   15
100
AcDbLine
 10
442.3628909083
 20
201.5477611559
 11
442.3628909083
 21
393.6277638996
  0
LINE
  5
65
100
AcDbEntity
  8
0
  6
CONTINUOUS
 62
    7
370
   15
100
AcDbLine
 10
426.187829444
 20
201.5477611559
 11
442.3628909083
 21
201.5477611559
  0
ARC
  5
66
100
AcDbEntity
  8
0
  6
CONTINUOUS
 62
    7
370
   15
100
AcDbCircle
 10
431.7428843746
 20
387.9077610652
 40
1.440000000000006
100
AcDbArc
 50
94.14397990729999
 51
265.8560200927
  0
LINE
  5
67
100
AcDbEntity
  8
0
  6
CONTINUOUS
 62
    7
370
   15
100
AcDbLine
 10
431.6388232203
 20
386.4715259398
 11
434.1278833838
 21
386.4715259398
  0
ARC
  5
68
100
AcDbEntity
  8
0
  6
CONTINUOUS
 62
    7
370
   15
100
AcDbCircle
 10
436.5895327011
 20
387.9077610652
 40
2.849999999999993
100
AcDbArc
 50
210.2611585199
 51
149.7388414801
  0
LINE
  5
69
100
AcDbEntity
  8
0
  6
CONTINUOUS
 62
    7
370
   15
100
AcDbLine
 10
434.1278833838
 20
389.3439929808
 11
431.6388232203
 21
389.3439929808
  0
ARC
  5
6A
100
AcDbEntity
  8
0
  6
CONTINUOUS
 62
    7
370
   15
100
AcDbCircle
 10
411.2428843746
 20
345.7777610652
 40
0.5900000000003729
100
AcDbArc
 50
0
 51
180
  0
LINE
  5
6B
100
AcDbEntity
  8
0
  6
CONTINUOUS
 62
    7
370
   15
100
AcDbLine
 10
410.6528920623
 20
345.7777660216
 11
410.6528920623
 21
344.4777589167
  0
ARC
  5
6C
100
AcDbEntity
  8
0
  6
CONTINUOUS
 62
    7
370
   15
100
AcDbCircle
 10
411.2428843746
 20
344.4777610652
 40
0.5900000000002592
100
AcDbArc
 50
180
 51
0
  0
LINE
  5
6D
100
AcDbEntity
  8
0
  6
CONTINUOUS
 62
    7
370
   15
100
AcDbLine
 10
411.8328852149
 20
344.4777589167
 11
411.8328852149
 21
345.7777660216
  0
ARC
  5
6E
100
AcDbEntity
  8
0
  6
CONTINUOUS
 62
    7
370
   15
100
AcDbCircle
 10
401.7428843746
 20
345.7777610652
 40
0.5899999999999181
100
AcDbArc
 50
0
 51
180
  0
LINE
  5
6F
100
AcDbEntity
  8
0
  6
CONTINUOUS
 62
    7
370
   15
100
AcDbLine
 10
401.1528951617
 20
345.7777660216
 11
401.1528951617
 21
344.4777589167
  0
ARC
  5
70
100
AcDbEntity
  8
0
  6
CONTINUOUS
 62
    7
370
   15
100
AcDbCircle
 10
401.7428843746
 20
344.4777610652
 40
0.5899999999999181
100
AcDbArc
 50
180
 51
360
  0
LINE
  5
71
100
AcDbEntity
  8
0
  6
CONTINUOUS
 62
    7
370
   15
100
AcDbLine
 10
402.3328883143
 20
344.4777589167
 11
402.3328883143
 21
345.7777660216
  0
ARC
  5
72
100
AcDbEntity
  8
0
  6
CONTINUOUS
 62
    7
370
   15
100
AcDbCircle
 10
431.7428843746
 20
207.2677610652
 40
1.43999999999998
100
AcDbArc
 50
94.1439799931
 51
265.8560200069
  0
LINE
  5
73
100
AcDbEntity
  8
0
  6
CONTINUOUS
 62
    7
370
   15
100
AcDbLine
 10
431.6388232203
 20
205.8315260211
 11
434.1278833838
 21
205.8315260211
  0
ARC
  5
74
100
AcDbEntity
  8
0
  6
CONTINUOUS
 62
    7
370
   15
100
AcDbCircle
 10
436.5895327011
 20
207.2677610652
 40
2.850000000000052
100
AcDbArc
 50
210.2611585163
 51
149.7388414837
  0
LINE
  5
75
100
AcDbEntity
  8
0
  6
CONTINUOUS
 62
    7
370
   15
100
AcDbLine
 10
434.1278833838
 20
208.7039967874
 11
431.6388232203
 21
208.7039967874
  0
ARC
  5
76
100
AcDbEntity
  8
0
  6
CONTINUOUS
 62
    7
370
   15
100
AcDbCircle
 10
257.7428843746
 20
357.5077610652
 40
9.940000000000055
100
AcDbArc
 50
0
 51
90
  0
LINE
  5
77
100
AcDbEntity
  8
0
  6
CONTINUOUS
 62
    7
370
   15
100
AcDbLine
 10
257.7428979369
 20
367.4477647865
 11
77.74288333379999
 21
367.4477647865
  0
ARC
  5
78
100
AcDbEntity
  8
0
  6
CONTINUOUS
 62
    7
370
   15
100
AcDbCircle
 10
77.7428843746
 20
357.5077610652
 40
9.939999999999998
100
AcDbArc
 50
90
 51
180
  0
LINE
  5
79
100
AcDbEntity
  8
0
  6
CONTINUOUS
 62
    7
370
   15
100
AcDbLine
 10
67.8028849455
 20
357.5077663983
 11
67.8028849455
 21
237.6677628482
  0
ARC
  5
7A
100
AcDbEntity
  8
0
  6
CONTINUOUS
 62
    7
370
   15
100
AcDbCircle
 10
77.7428843746
 20
237.6677610652
 40
9.940000000000012
100
AcDbArc
 50
180
 51
270
  0
LINE
  5
7B
100
AcDbEntity
  8
0
  6
CONTINUOUS
 62
    7
370
   15
100
AcDbLine
 10
77.74288333379999
 20
227.7277607346
 11
257.7428979369
 21
227.7277607346
  0
ARC
  5
7C
100
AcDbEntity
  8
0
  6
CONTINUOUS
 62
    7
370
   15
100
AcDbCircle
 10
257.7428843746
 20
237.6677610652
 40
9.939999999999998
100
AcDbArc
 50
270
 51
0
  0
LINE
  5
7D
100
AcDbEntity
  8
0
  6
CONTINUOUS
 62
    7
370
   15
100
AcDbLine
 10
267.6828963252
 20
237.6677628482
 11
267.6828963252
 21
357.5077663983
  0
ARC
  5
7E
100
AcDbEntity
  8
0
  6
CONTINUOUS
 62
    7
370
   15
100
AcDbCircle
 10
401.8557556901
 20
374.4876360258
 40
0.589999999999958
100
AcDbArc
 50
190
 51
10
  0
LINE
  5
7F
100
AcDbEntity
  8
0
  6
CONTINUOUS
 62
    7
370
   15
100
AcDbLine
 10
402.4367792102
 20
374.5900850619
 11
402.2110564204
 21
375.870333227
  0
ARC
  5
80
100
AcDbEntity
  8
0
  6
CONTINUOUS
 62
    7
370
   15
100
AcDbCircle
 10
401.6300130592
 20
375.7678861047
 40
0.589999999999958
100
AcDbArc
 50
10
 51
190
  0
LINE
  5
81
100
AcDbEntity
  8
0
  6
CONTINUOUS
 62
    7
370
   15
100
AcDbLine
 10
401.0489744635
 20
375.6654273594
 11
401.2747270556
 21
374.3851791943
  0
ARC
  5
82
100
AcDbEntity
  8
0
  6
CONTINUOUS
 62
    7
370
   15
100
AcDbCircle
 10
410.9856867128
 20
377.4175437925
 40
0.5900000000000699
100
AcDbArc
 50
10
 51
190
  0
LINE
  5
83
100
AcDbEntity
  8
0
  6
CONTINUOUS
 62
    7
370
   15
100
AcDbLine
 10
410.4046387168
 20
377.3150902117
 11
410.6303913089
 21
376.0348420466
  0
ARC
  5
84
100
AcDbEntity
  8
0
  6
CONTINUOUS
 62
    7
370
   15
100
AcDbCircle
 10
411.2114293437
 20
376.1372937136
 40
0.5900000000000798
100
AcDbArc
 50
190
 51
10
  0
LINE
  5
85
100
AcDbEntity
  8
0
  6
CONTINUOUS
 62
    7
370
   15
100
AcDbLine
 10
411.7924732657
 20
376.2397479141
 11
411.5667206736
 21
377.5199960793
  0
SPLINE
  5
86
100
AcDbEntity
  8
0
  6
CONTINUOUS
 62
    7
370
   15
100
AcDbSpline
210
0
220
0
230
0
 70
    8
 71
    3
 72
   50
 73
   46
 74
    0
 42
1e-07
 43
1e-07
 40
0
 40
0
 40
0
 40
0
 40
0.02325581395348837
 40
0.04651162790697674
 40
0.06976744186046512
 40
0.09302325581395349
 40
0.1162790697674419
 40
0.1395348837209302
 40
0.1627906976744186
 40
0.186046511627907
 40
0.2093023255813953
 40
0.2325581395348837
 40
0.2558139534883721
 40
0.2790697674418605
 40
0.3023255813953488
 40
0.3255813953488372
 40
0.3488372093023256
 40
0.3720930232558139
 40
0.3953488372093023
 40
0.4186046511627907
 40
0.4418604651162791
 40
0.4651162790697674
 40
0.4883720930232558
 40
0.5116279069767442
 40
0.5348837209302325
 40
0.5581395348837209
 40
0.5813953488372093
 40
0.6046511627906976
 40
0.6279069767441861
 40
0.6511627906976745
 40
0.6744186046511628
 40
0.6976744186046512
 40
0.7209302325581395
 40
0.7441860465116279
 40
0.7674418604651163
 40
0.7906976744186046
 40
0.813953488372093
 40
0.8372093023255813
 40
0.8604651162790697
 40
0.8837209302325582
 40
0.9069767441860465
 40
0.9302325581395349
 40
0.9534883720930233
 40
0.9767441860465116
 40
1
 40
1
 40
1
 40
1
 10
38.22082034666124
 20
302.3995097602088
 30
0
 10
38.05998981434158
 20
302.5443383637237
 30
0
 10
37.73710820865378
 20
302.8350946733495
 30
0
 10
37.23913453804145
 20
303.2570476929756
 30
0
 10
36.7225457636137
 20
303.6589982091123
 30
0
 10
36.17703108463605
 20
304.038907075725
 30
0
 10
35.60090203538285
 20
304.3896515325718
 30
0
 10
34.98590214610281
 20
304.6886678825892
 30
0
 10
34.3139234878895
 20
304.9305753957694
 30
0
 10
33.58564083844725
 20
305.0956759319358
 30
0
 10
32.80963698048822
 20
305.1729263269862
 30
0
 10
32.02739171749386
 20
305.157824011023
 30
0
 10
31.24999621843688
 20
305.0522299622118
 30
0
 10
30.48709753206061
 20
304.8626469784585
 30
0
 10
29.69763774928769
 20
304.5778041216132
 30
0
 10
28.89600959255359
 20
304.1857180384465
 30
0
 10
28.10136032874117
 20
303.6759473603482
 30
0
 10
27.37024323953505
 20
303.0797990579762
 30
0
 10
26.71203301931205
 20
302.4053041939231
 30
0
 10
26.13615986044476
 20
301.6603827408573
 30
0
 10
25.65242235019757
 20
300.8534591130505
 30
0
 10
25.26566269479505
 20
299.9964202756604
 30
0
 10
24.98047021498839
 20
299.1006868140622
 30
0
 10
24.80158617635572
 20
298.1776961055427
 30
0
 10
24.73388499335077
 20
297.2389244071516
 30
0
 10
24.78216561265423
 20
296.2972842368987
 30
0
 10
24.94179395175328
 20
295.3663064017263
 30
0
 10
25.20840427146801
 20
294.459101709627
 30
0
 10
25.57773254661241
 20
293.5889726995236
 30
0
 10
26.04575826636032
 20
292.7690902683676
 30
0
 10
26.60864061998186
 20
292.0128745811792
 30
0
 10
27.25609821210512
 20
291.3286668610629
 30
0
 10
27.97849667802885
 20
290.7234604569228
 30
0
 10
28.76641011991482
 20
290.2042757871527
 30
0
 10
29.61008239655347
 20
289.7783638682513
 30
0
 10
30.49782494069964
 20
289.45352618247
 30
0
 10
31.41632742664496
 20
289.2388192077568
 30
0
 10
32.3512536474507
 20
289.1469459166072
 30
0
 10
33.286374141766
 20
289.1821403558957
 30
0
 10
34.20768323778245
 20
289.3382017351537
 30
0
 10
35.10167607540524
 20
289.6108286621479
 30
0
 10
35.95628161000136
 20
289.9900820329188
 30
0
 10
36.75748160060513
 20
290.4721692498845
 30
0
 10
37.50553258737641
 20
291.0317419060364
 30
0
 10
37.98359748098473
 20
291.4305169872099
 30
0
 10
38.22272769529405
 20
291.6299860799987
 30
0
  0
LINE
  5
87
100
AcDbEntity
  8
0
  6
CONTINUOUS
 62
    7
370
   15
100
AcDbLine
 10
38.2227276953
 20
291.62998608
 11
43.0726011785
 21
296.7763479675
  0
SPLINE
  5
88
100
AcDbEntity
  8
0
  6
CONTINUOUS
 62
    7
370
   15
100
AcDbSpline
210
0
220
0
230
0
 70
    8
 71
    3
 72
   10
 73
    6
 74
    0
 42
1e-07
 43
1e-07
 40
0
 40
0
 40
0
 40
0
 40
0.3333333333333333
 40
0.6666666666666666
 40
1
 40
1
 40
1
 40
1
 10
43.07260117847505
 20
296.7763479674537
 30
0
 10
43.09852441429851
 20
296.8061787378321
 30
0
 10
43.14976347045615
 20
296.8651413044287
 30
0
 10
43.22228099558084
 20
296.9850790902385
 30
0
 10
43.23435288383581
 20
297.0839359511763
 30
0
 10
43.24167720396105
 20
297.1439149106223
 30
0
  0
SPLINE
  5
89
100
AcDbEntity
  8
0
  6
CONTINUOUS
 62
    7
370
   15
100
AcDbSpline
210
0
220
0
230
0
 70
    8
 71
    3
 72
    9
 73
    5
 74
    0
 42
1e-07
 43
1e-07
 40
0
 40
0
 40
0
 40
0
 40
0.5
 40
1
 40
1
 40
1
 40
1
 10
43.24167720396105
 20
297.1439149106223
 30
0
 10
43.22575723856381
 20
297.2260575449141
 30
0
 10
43.1973118237943
 20
297.3728280462555
 30
0
 10
43.11073756579739
 20
297.4940520146982
 30
0
 10
43.07261607963625
 20
297.5474309051711
 30
0
  0
LINE
  5
8A
100
AcDbEntity
  8
0
  6
CONTINUOUS
 62
    7
370
   15
100
AcDbLine
 10
43.0726160796
 20
297.5474309052
 11
38.2208203467
 21
302.3995097602
  0
CIRCLE
  5
8B
100
AcDbEntity
  8
0
  6
CONTINUOUS
 62
    7
370
   15
100
AcDbCircle
 10
245.4028843746
 20
244.3877610652
 40
2.438076211353319
  0
CIRCLE
  5
8C
100
AcDbEntity
  8
0
  6
CONTINUOUS
 62
    7
370
   15
100
AcDbCircle
 10
215.4028843746
 20
244.3877610652
 40
1.640000000000043
  0
CIRCLE
  5
8D
100
AcDbEntity
  8
0
  6
CONTINUOUS
 62
    7
370
   15
100
AcDbCircle
 10
115.4028843746
 20
244.3877610652
 40
1.340000000000003
  0
CIRCLE
  5
8E
100
AcDbEntity
  8
0
  6
CONTINUOUS
 62
    7
370
   15
100
AcDbCircle
 10
85.40288437460001
 20
244.3877610652
 40
2.438076211353348
  0
ARC
  5
8F
100
AcDbEntity
  8
0
  6
CONTINUOUS
 62
    7
370
   15
100
AcDbCircle
 10
218.5783108552
 20
249.8877610652
 40
1.000000000000008
100
AcDbArc
 50
30
 51
90
  0
LINE
  5
90
100
AcDbEntity
  8
0
  6
CONTINUOUS
 62
    7
370
   15
100
AcDbLine
 10
219.6983667107
 20
249.9477600778
 11
219.4443317147
 21
250.3877615655
  0
ARC
  5
91
100
AcDbEntity
  8
0
  6
CONTINUOUS
 62
    7
370
   15
100
AcDbCircle
 10
222.2964465888
 20
251.4477610652
 40
3
100
AcDbArc
 50
210
 51
270
  0
ARC
  5
92
100
AcDbEntity
  8
0
  6
CONTINUOUS
 62
    7
370
   15
100
AcDbCircle
 10
238.9879019117
 20
256.4477610652
 40
8
100
AcDbArc
 50
270
 51
298.0095057167
  0
ARC
  5
93
100
AcDbEntity
  8
0
  6
CONTINUOUS
 62
    7
370
   15
100
AcDbCircle
 10
245.4028843746
 20
244.3877610652
 40
5.660000000000049
100
AcDbArc
 50
241.9904942833
 51
118.0095057167
  0
ARC
  5
94
100
AcDbEntity
  8
0
  6
CONTINUOUS
 62
    7
370
   15
100
AcDbCircle
 10
238.9879019117
 20
232.3277610652
 40
8.000000000000057
100
AcDbArc
 50
61.9904942833
 51
90
  0
ARC
  5
95
100
AcDbEntity
  8
0
  6
CONTINUOUS
 62
    7
370
   15
100
AcDbCircle
 10
222.2964465888
 20
237.3277610652
 40
3
100
AcDbArc
 50
90
 51
150
  0
LINE
  5
96
100
AcDbEntity
  8
0
  6
CONTINUOUS
 62
    7
370
   15
100
AcDbLine
 10
219.4443317147
 20
238.3877595986
 11
219.6983667107
 21
238.8277610863
  0
ARC
  5
97
100
AcDbEntity
  8
0
  6
CONTINUOUS
 62
    7
370
   15
100
AcDbCircle
 10
218.5783108552
 20
238.8877610652
 40
1.000000000000008
100
AcDbArc
 50
270
 51
330
  0
LINE
  5
98
100
AcDbEntity
  8
0
  6
CONTINUOUS
 62
    7
370
   15
100
AcDbLine
 10
212.2274609299
 20
237.8877585853
 11
218.5783060284
 21
237.8877585853
  0
ARC
  5
99
100
AcDbEntity
  8
0
  6
CONTINUOUS
 62
    7
370
   15
100
AcDbCircle
 10
212.2274578941
 20
238.8877610652
 40
1.000000000000033
100
AcDbArc
 50
210
 51
270
  0
LINE
  5
9A
100
AcDbEntity
  8
0
  6
CONTINUOUS
 62
    7
370
   15
100
AcDbLine
 10
211.1074002476
 20
238.8277610863
 11
211.3614352437
 21
238.3877595986
  0
ARC
  5
9B
100
AcDbEntity
  8
0
  6
CONTINUOUS
 62
    7
370
   15
100
AcDbCircle
 10
208.5093221605
 20
237.3277610652
 40
3
100
AcDbArc
 50
30
 51
90
  0
ARC
  5
9C
100
AcDbEntity
  8
0
  6
CONTINUOUS
 62
    7
370
   15
100
AcDbCircle
 10
166.217097937
 20
239.3277610652
 40
1
100
AcDbArc
 50
90
 51
135
  0
LINE
  5
9D
100
AcDbEntity
  8
0
  6
CONTINUOUS
 62
    7
370
   15
100
AcDbLine
 10
165.4028864594
 20
239.927757355
 11
165.5099960061
 21
240.0348669017
  0
LINE
  5
9E
100
AcDbEntity
  8
0
  6
CONTINUOUS
 62
    7
370
   15
100
AcDbLine
 10
165.2957769128
 20
240.0348669017
 11
165.4028864594
 21
239.927757355
  0
ARC
  5
9F
100
AcDbEntity
  8
0
  6
CONTINUOUS
 62
    7
370
   15
100
AcDbCircle
 10
164.5886708123
 20
239.3277610652
 40
1.000000000000008
100
AcDbArc
 50
45
 51
90
  0
ARC
  5
A0
100
AcDbEntity
  8
0
  6
CONTINUOUS
 62
    7
370
   15
100
AcDbCircle
 10
124.0380682175
 20
230.3277610652
 40
10.00000000000006
100
AcDbArc
 50
90
 51
121.5568608656
  0
ARC
  5
A1
100
AcDbEntity
  8
0
  6
CONTINUOUS
 62
    7
370
   15
100
AcDbCircle
 10
115.4028843746
 20
244.3877610652
 40
6.50000000000002
100
AcDbArc
 50
238.4431391344
 51
301.5568608656
  0
ARC
  5
A2
100
AcDbEntity
  8
0
  6
CONTINUOUS
 62
    7
370
   15
100
AcDbCircle
 10
106.7677005318
 20
230.3277610652
 40
10.00000000000006
100
AcDbArc
 50
58.4431391344
 51
90
  0
LINE
  5
A3
100
AcDbEntity
  8
0
  6
CONTINUOUS
 62
    7
370
   15
100
AcDbLine
 10
91.8178679438
 20
240.3277641261
 11
106.7677037807
 21
240.3277641261
  0
ARC
  5
A4
100
AcDbEntity
  8
0
  6
CONTINUOUS
 62
    7
370
   15
100
AcDbCircle
 10
91.81786683759999
 20
232.3277610652
 40
8.000000000000057
100
AcDbArc
 50
90
 51
118.0095057167
  0
ARC
  5
A5
100
AcDbEntity
  8
0
  6
CONTINUOUS
 62
    7
370
   15
100
AcDbCircle
 10
85.40288437460001
 20
244.3877610652
 40
5.660000000000063
100
AcDbArc
 50
61.9904942833
 51
298.0095057167
  0
ARC
  5
A6
100
AcDbEntity
  8
0
  6
CONTINUOUS
 62
    7
370
   15
100
AcDbCircle
 10
91.81786683759999
 20
256.4477610652
 40
8
100
AcDbArc
 50
241.9904942833
 51
270
  0
LINE
  5
A7
100
AcDbEntity
  8
0
  6
CONTINUOUS
 62
    7
370
   15
100
AcDbLine
 10
106.7677037807
 20
248.4477644885
 11
91.8178679438
 21
248.4477644885
  0
ARC
  5
A8
100
AcDbEntity
  8
0
  6
CONTINUOUS
 62
    7
370
   15
100
AcDbCircle
 10
106.7677005318
 20
258.4477610652
 40
10.00000000000003
100
AcDbArc
 50
270
 51
301.5568608656
  0
ARC
  5
A9
100
AcDbEntity
  8
0
  6
CONTINUOUS
 62
    7
370
   15
100
AcDbCircle
 10
115.4028843746
 20
244.3877610652
 40
6.499999999999972
100
AcDbArc
 50
58.4431391344
 51
121.5568608656
  0
ARC
  5
AA
100
AcDbEntity
  8
0
  6
CONTINUOUS
 62
    7
370
   15
100
AcDbCircle
 10
124.0380682175
 20
258.4477610652
 40
10.00000000000003
100
AcDbArc
 50
238.4431391344
 51
270
  0
ARC
  5
AB
100
AcDbEntity
  8
0
  6
CONTINUOUS
 62
    7
370
   15
100
AcDbCircle
 10
164.5886708123
 20
249.4477610652
 40
1.000000000000048
100
AcDbArc
 50
270
 51
315
  0
LINE
  5
AC
100
AcDbEntity
  8
0
  6
CONTINUOUS
 62
    7
370
   15
100
AcDbLine
 10
165.4028864594
 20
248.847763809
 11
165.2957769128
 21
248.7406542624
  0
LINE
  5
AD
100
AcDbEntity
  8
0
  6
CONTINUOUS
 62
    7
370
   15
100
AcDbLine
 10
165.5099960061
 20
248.7406542624
 11
165.4028864594
 21
248.847763809
  0
ARC
  5
AE
100
AcDbEntity
  8
0
  6
CONTINUOUS
 62
    7
370
   15
100
AcDbCircle
 10
166.217097937
 20
249.4477610652
 40
1.000000000000028
100
AcDbArc
 50
225
 51
270
  0
ARC
  5
AF
100
AcDbEntity
  8
0
  6
CONTINUOUS
 62
    7
370
   15
100
AcDbCircle
 10
208.5093221605
 20
251.4477610652
 40
3
100
AcDbArc
 50
270
 51
330
  0
LINE
  5
B0
100
AcDbEntity
  8
0
  6
CONTINUOUS
 62
    7
370
   15
100
AcDbLine
 10
211.3614352437
 20
250.3877615655
 11
211.1074002476
 21
249.9477600778
  0
ARC
  5
B1
100
AcDbEntity
  8
0
  6
CONTINUOUS
 62
    7
370
   15
100
AcDbCircle
 10
212.2274578941
 20
249.8877610652
 40
1.000000000000004
100
AcDbArc
 50
90
 51
150
  0
LINE
  5
B2
100
AcDbEntity
  8
0
  6
CONTINUOUS
 62
    7
370
   15
100
AcDbLine
 10
218.5783060284
 20
250.8877625788
 11
212.2274609299
 21
250.8877625788
  0
LINE
  5
B3
100
AcDbEntity
  8
0
  6
CONTINUOUS
 62
    7
370
   15
100
AcDbLine
 10
238.987904975
 20
248.4477644885
 11
222.2964437695
 21
248.4477644885
  0
LINE
  5
B4
100
AcDbEntity
  8
0
  6
CONTINUOUS
 62
    7
370
   15
100
AcDbLine
 10
222.2964437695
 20
240.3277641261
 11
238.987904975
 21
240.3277641261
  0
LINE
  5
B5
100
AcDbEntity
  8
0
  6
CONTINUOUS
 62
    7
370
   15
100
AcDbLine
 10
166.2171008082
 20
240.3277641261
 11
208.5093231888
 21
240.3277641261
  0
LINE
  5
B6
100
AcDbEntity
  8
0
  6
CONTINUOUS
 62
    7
370
   15
100
AcDbLine
 10
164.5886721106
 20
248.4477644885
 11
124.038067648
 21
248.4477644885
  0
LINE
  5
B7
100
AcDbEntity
  8
0
  6
CONTINUOUS
 62
    7
370
   15
100
AcDbLine
 10
124.038067648
 20
240.3277641261
 11
164.5886721106
 21
240.3277641261
  0
LINE
  5
B8
100
AcDbEntity
  8
0
  6
CONTINUOUS
 62
    7
370
   15
100
AcDbLine
 10
208.5093231888
 20
248.4477644885
 11
166.2171008082
 21
248.4477644885
  0
CIRCLE
  5
B9
100
AcDbEntity
  8
0
  6
CONTINUOUS
 62
    7
370
   15
100
AcDbCircle
 10
245.4028843746
 20
264.3877610652
 40
2.438076211353319
  0
CIRCLE
  5
BA
100
AcDbEntity
  8
0
  6
CONTINUOUS
 62
    7
370
   15
100
AcDbCircle
 10
215.4028843746
 20
264.3877610652
 40
1.640000000000043
  0
CIRCLE
  5
BB
100
AcDbEntity
  8
0
  6
CONTINUOUS
 62
    7
370
   15
100
AcDbCircle
 10
115.4028843746
 20
264.3877610652
 40
1.340000000000003
  0
CIRCLE
  5
BC
100
AcDbEntity
  8
0
  6
CONTINUOUS
 62
    7
370
   15
100
AcDbCircle
 10
85.40288437460001
 20
264.3877610652
 40
2.438076211353348
  0
ARC
  5
BD
100
AcDbEntity
  8
0
  6
CONTINUOUS
 62
    7
370
   15
100
AcDbCircle
 10
218.5783108552
 20
269.8877610652
 40
1.000000000000008
100
AcDbArc
 50
30
 51
90
  0
LINE
  5
BE
100
AcDbEntity
  8
0
  6
CONTINUOUS
 62
    7
370
   15
100
AcDbLine
 10
219.6983667107
 20
269.9477600778
 11
219.4443317147
 21
270.3877615655
  0
ARC
  5
BF
100
AcDbEntity
  8
0
  6
CONTINUOUS
 62
    7
370
   15
100
AcDbCircle
 10
222.2964465888
 20
271.4477610652
 40
3
100
AcDbArc
 50
210
 51
270
  0
ARC
  5
C0
100
AcDbEntity
  8
0
  6
CONTINUOUS
 62
    7
370
   15
100
AcDbCircle
 10
238.9879019117
 20
276.4477610652
 40
8
100
AcDbArc
 50
270
 51
298.0095057167
  0
ARC
  5
C1
100
AcDbEntity
  8
0
  6
CONTINUOUS
 62
    7
370
   15
100
AcDbCircle
 10
245.4028843746
 20
264.3877610652
 40
5.660000000000049
100
AcDbArc
 50
241.9904942833
 51
118.0095057167
  0
ARC
  5
C2
100
AcDbEntity
  8
0
  6
CONTINUOUS
 62
    7
370
   15
100
AcDbCircle
 10
238.9879019117
 20
252.3277610652
 40
8.000000000000057
100
AcDbArc
 50
61.9904942833
 51
90
  0
ARC
  5
C3
100
AcDbEntity
  8
0
  6
CONTINUOUS
 62
    7
370
   15
100
AcDbCircle
 10
222.2964465888
 20
257.3277610652
 40
3
100
AcDbArc
 50
90
 51
150
  0
LINE
  5
C4
100
AcDbEntity
  8
0
  6
CONTINUOUS
 62
    7
370
   15
100
AcDbLine
 10
219.4443317147
 20
258.3877595986
 11
219.6983667107
 21
258.8277610863
  0
ARC
  5
C5
100
AcDbEntity
  8
0
  6
CONTINUOUS
 62
    7
370
   15
100
AcDbCircle
 10
218.5783108552
 20
258.8877610652
 40
1.000000000000008
100
AcDbArc
 50
270
 51
330
  0
LINE
  5
C6
100
AcDbEntity
  8
0
  6
CONTINUOUS
 62
    7
370
   15
100
AcDbLine
 10
212.2274609299
 20
257.8877585853
 11
218.5783060284
 21
257.8877585853
  0
ARC
  5
C7
100
AcDbEntity
  8
0
  6
CONTINUOUS
 62
    7
370
   15
100
AcDbCircle
 10
212.2274578941
 20
258.8877610652
 40
1.000000000000033
100
AcDbArc
 50
210
 51
270
  0
LINE
  5
C8
100
AcDbEntity
  8
0
  6
CONTINUOUS
 62
    7
370
   15
100
AcDbLine
 10
211.1074002476
 20
258.8277610863
 11
211.3614352437
 21
258.3877595986
  0
ARC
  5
C9
100
AcDbEntity
  8
0
  6
CONTINUOUS
 62
    7
370
   15
100
AcDbCircle
 10
208.5093221605
 20
257.3277610652
 40
3
100
AcDbArc
 50
30
 51
90
  0
ARC
  5
CA
100
AcDbEntity
  8
0
  6
CONTINUOUS
 62
    7
370
   15
100
AcDbCircle
 10
166.217097937
 20
259.3277610652
 40
1
100
AcDbArc
 50
90
 51
135
  0
LINE
  5
CB
100
AcDbEntity
  8
0
  6
CONTINUOUS
 62
    7
370
   15
100
AcDbLine
 10
165.4028864594
 20
259.927757355
 11
165.5099960061
 21
260.0348669017
  0
LINE
  5
CC
100
AcDbEntity
  8
0
  6
CONTINUOUS
 62
    7
370
   15
100
AcDbLine
 10
165.2957769128
 20
260.0348669017
 11
165.4028864594
 21
259.927757355
  0
ARC
  5
CD
100
AcDbEntity
  8
0
  6
CONTINUOUS
 62
    7
370
   15
100
AcDbCircle
 10
164.5886708123
 20
259.3277610652
 40
1.000000000000008
100
AcDbArc
 50
45
 51
90
  0
ARC
  5
CE
100
AcDbEntity
  8
0
  6
CONTINUOUS
 62
    7
370
   15
100
AcDbCircle
 10
124.0380682175
 20
250.3277610652
 40
10.00000000000006
100
AcDbArc
 50
90
 51
121.5568608656
  0
ARC
  5
CF
100
AcDbEntity
  8
0
  6
CONTINUOUS
 62
    7
370
   15
100
AcDbCircle
 10
115.4028843746
 20
264.3877610652
 40
6.50000000000002
100
AcDbArc
 50
238.4431391344
 51
301.5568608656
  0
ARC
  5
D0
100
AcDbEntity
  8
0
  6
CONTINUOUS
 62
    7
370
   15
100
AcDbCircle
 10
106.7677005318
 20
250.3277610652
 40
10.00000000000006
100
AcDbArc
 50
58.4431391344
 51
90
  0
LINE
  5
D1
100
AcDbEntity
  8
0
  6
CONTINUOUS
 62
    7
370
   15
100
AcDbLine
 10
91.8178679438
 20
260.3277641261
 11
106.7677037807
 21
260.3277641261
  0
ARC
  5
D2
100
AcDbEntity
  8
0
  6
CONTINUOUS
 62
    7
370
   15
100
AcDbCircle
 10
91.81786683759999
 20
252.3277610652
 40
8.000000000000057
100
AcDbArc
 50
90
 51
118.0095057167
  0
ARC
  5
D3
100
AcDbEntity
  8
0
  6
CONTINUOUS
 62
    7
370
   15
100
AcDbCircle
 10
85.40288437460001
 20
264.3877610652
 40
5.660000000000063
100
AcDbArc
 50
61.9904942833
 51
298.0095057167
  0
ARC
  5
D4
100
AcDbEntity
  8
0
  6
CONTINUOUS
 62
    7
370
   15
100
AcDbCircle
 10
91.81786683759999
 20
276.4477610652
 40
8
100
AcDbArc
 50
241.9904942833
 51
270
  0
LINE
  5
D5
100
AcDbEntity
  8
0
  6
CONTINUOUS
 62
    7
370
   15
100
AcDbLine
 10
106.7677037807
 20
268.4477644885
 11
91.8178679438
 21
268.4477644885
  0
ARC
  5
D6
100
AcDbEntity
  8
0
  6
CONTINUOUS
 62
    7
370
   15
100
AcDbCircle
 10
106.7677005318
 20
278.4477610652
 40
10.00000000000003
100
AcDbArc
 50
270
 51
301.5568608656
  0
ARC
  5
D7
100
AcDbEntity
  8
0
  6
CONTINUOUS
 62
    7
370
   15
100
AcDbCircle
 10
115.4028843746
 20
264.3877610652
 40
6.499999999999972
100
AcDbArc
 50
58.4431391344
 51
121.5568608656
  0
ARC
  5
D8
100
AcDbEntity
  8
0
  6
CONTINUOUS
 62
    7
370
   15
100
AcDbCircle
 10
124.0380682175
 20
278.4477610652
 40
10.00000000000003
100
AcDbArc
 50
238.4431391344
 51
270
  0
ARC
  5
D9
100
AcDbEntity
  8
0
  6
CONTINUOUS
 62
    7
370
   15
100
AcDbCircle
 10
164.5886708123
 20
269.4477610652
 40
1.000000000000048
100
AcDbArc
 50
270
 51
315
  0
LINE
  5
DA
100
AcDbEntity
  8
0
  6
CONTINUOUS
 62
    7
370
   15
100
AcDbLine
 10
165.4028864594
 20
268.847763809
 11
165.2957769128
 21
268.7406542624
  0
LINE
  5
DB
100
AcDbEntity
  8
0
  6
CONTINUOUS
 62
    7
370
   15
100
AcDbLine
 10
165.5099960061
 20
268.7406542624
 11
165.4028864594
 21
268.847763809
  0
ARC
  5
DC
100
AcDbEntity
  8
0
  6
CONTINUOUS
 62
    7
370
   15
100
AcDbCircle
 10
166.217097937
 20
269.4477610652
 40
1.000000000000028
100
AcDbArc
 50
225
 51
270
  0
ARC
  5
DD
100
AcDbEntity
  8
0
  6
CONTINUOUS
 62
    7
370
   15
100
AcDbCircle
 10
208.5093221605
 20
271.4477610652
 40
3
100
AcDbArc
 50
270
 51
330
  0
LINE
  5
DE
100
AcDbEntity
  8
0
  6
CONTINUOUS
 62
    7
370
   15
100
AcDbLine
 10
211.3614352437
 20
270.3877615655
 11
211.1074002476
 21
269.9477600778
  0
ARC
  5
DF
100
AcDbEntity
  8
0
  6
CONTINUOUS
 62
    7
370
   15
100
AcDbCircle
 10
212.2274578941
 20
269.8877610652
 40
1.000000000000004
100
AcDbArc
 50
90
 51
150
  0
LINE
  5
E0
100
AcDbEntity
  8
0
  6
CONTINUOUS
 62
    7
370
   15
100
AcDbLine
 10
218.5783060284
 20
270.8877625788
 11
212.2274609299
 21
270.8877625788
  0
LINE
  5
E1
100
AcDbEntity
  8
0
  6
CONTINUOUS
 62
    7
370
   15
100
AcDbLine
 10
238.987904975
 20
268.4477644885
 11
222.2964437695
 21
268.4477644885
  0
LINE
  5
E2
100
AcDbEntity
  8
0
  6
CONTINUOUS
 62
    7
370
   15
100
AcDbLine
 10
222.2964437695
 20
260.3277641261
 11
238.987904975
 21
260.3277641261
  0
LINE
  5
E3
100
AcDbEntity
  8
0
  6
CONTINUOUS
 62
    7
370
   15
100
AcDbLine
 10
166.2171008082
 20
260.3277641261
 11
208.5093231888
 21
260.3277641261
  0
LINE
  5
E4
100
AcDbEntity
  8
0
  6
CONTINUOUS
 62
    7
370
   15
100
AcDbLine
 10
164.5886721106
 20
268.4477644885
 11
124.038067648
 21
268.4477644885
  0
LINE
  5
E5
100
AcDbEntity
  8
0
  6
CONTINUOUS
 62
    7
370
   15
100
AcDbLine
 10
124.038067648
 20
260.3277641261
 11
164.5886721106
 21
260.3277641261
  0
LINE
  5
E6
100
AcDbEntity
  8
0
  6
CONTINUOUS
 62
    7
370
   15
100
AcDbLine
 10
208.5093231888
 20
268.4477644885
 11
166.2171008082
 21
268.4477644885
  0
CIRCLE
  5
E7
100
AcDbEntity
  8
0
  6
CONTINUOUS
 62
    7
370
   15
100
AcDbCircle
 10
245.4028843746
 20
284.3877610652
 40
2.438076211353319
  0
CIRCLE
  5
E8
100
AcDbEntity
  8
0
  6
CONTINUOUS
 62
    7
370
   15
100
AcDbCircle
 10
215.4028843746
 20
284.3877610652
 40
1.640000000000043
  0
CIRCLE
  5
E9
100
AcDbEntity
  8
0
  6
CONTINUOUS
 62
    7
370
   15
100
AcDbCircle
 10
115.4028843746
 20
284.3877610652
 40
1.340000000000003
  0
CIRCLE
  5
EA
100
AcDbEntity
  8
0
  6
CONTINUOUS
 62
    7
370
   15
100
AcDbCircle
 10
85.40288437460001
 20
284.3877610652
 40
2.438076211353348
  0
ARC
  5
EB
100
AcDbEntity
  8
0
  6
CONTINUOUS
 62
    7
370
   15
100
AcDbCircle
 10
218.5783108552
 20
289.8877610652
 40
1.000000000000008
100
AcDbArc
 50
30
 51
90
  0
LINE
  5
EC
100
AcDbEntity
  8
0
  6
CONTINUOUS
 62
    7
370
   15
100
AcDbLine
 10
219.6983667107
 20
289.9477600778
 11
219.4443317147
 21
290.3877615655
  0
ARC
  5
ED
100
AcDbEntity
  8
0
  6
CONTINUOUS
 62
    7
370
   15
100
AcDbCircle
 10
222.2964465888
 20
291.4477610652
 40
3
100
AcDbArc
 50
210
 51
270
  0
ARC
  5
EE
100
AcDbEntity
  8
0
  6
CONTINUOUS
 62
    7
370
   15
100
AcDbCircle
 10
238.9879019117
 20
296.4477610652
 40
8
100
AcDbArc
 50
270
 51
298.0095057167
  0
ARC
  5
EF
100
AcDbEntity
  8
0
  6
CONTINUOUS
 62
    7
370
   15
100
AcDbCircle
 10
245.4028843746
 20
284.3877610652
 40
5.660000000000049
100
AcDbArc
 50
241.9904942833
 51
118.0095057167
  0
ARC
  5
F0
100
AcDbEntity
  8
0
  6
CONTINUOUS
 62
    7
370
   15
100
AcDbCircle
 10
238.9879019117
 20
272.3277610652
 40
8.000000000000057
100
AcDbArc
 50
61.9904942833
 51
90
  0
ARC
  5
F1
100
AcDbEntity
  8
0
  6
CONTINUOUS
 62
    7
370
   15
100
AcDbCircle
 10
222.2964465888
 20
277.3277610652
 40
3
100
AcDbArc
 50
90
 51
150
  0
LINE
  5
F2
100
AcDbEntity
  8
0
  6
CONTINUOUS
 62
    7
370
   15
100
AcDbLine
 10
219.4443317147
 20
278.3877595986
 11
219.6983667107
 21
278.8277610863
  0
ARC
  5
F3
100
AcDbEntity
  8
0
  6
CONTINUOUS
 62
    7
370
   15
100
AcDbCircle
 10
218.5783108552
 20
278.8877610652
 40
1.000000000000008
100
AcDbArc
 50
270
 51
330
  0
LINE
  5
F4
100
AcDbEntity
  8
0
  6
CONTINUOUS
 62
    7
370
   15
100
AcDbLine
 10
212.2274609299
 20
277.8877585853
 11
218.5783060284
 21
277.8877585853
  0
ARC
  5
F5
100
AcDbEntity
  8
0
  6
CONTINUOUS
 62
    7
370
   15
100
AcDbCircle
 10
212.2274578941
 20
278.8877610652
 40
1.000000000000033
100
AcDbArc
 50
210
 51
270
  0
LINE
  5
F6
100
AcDbEntity
  8
0
  6
CONTINUOUS
 62
    7
370
   15
100
AcDbLine
 10
211.1074002476
 20
278.8277610863
 11
211.3614352437
 21
278.3877595986
  0
ARC
  5
F7
100
AcDbEntity
  8
0
  6
CONTINUOUS
 62
    7
370
   15
100
AcDbCircle
 10
208.5093221605
 20
277.3277610652
 40
3
100
AcDbArc
 50
30
 51
90
  0
ARC
  5
F8
100
AcDbEntity
  8
0
  6
CONTINUOUS
 62
    7
370
   15
100
AcDbCircle
 10
166.217097937
 20
279.3277610652
 40
1
100
AcDbArc
 50
90
 51
135
  0
LINE
  5
F9
100
AcDbEntity
  8
0
  6
CONTINUOUS
 62
    7
370
   15
100
AcDbLine
 10
165.4028864594
 20
279.927757355
 11
165.5099960061
 21
280.0348669017
  0
LINE
  5
FA
100
AcDbEntity
  8
0
  6
CONTINUOUS
 62
    7
370
   15
100
AcDbLine
 10
165.2957769128
 20
280.0348669017
 11
165.4028864594
 21
279.927757355
  0
ARC
  5
FB
100
AcDbEntity
  8
0
  6
CONTINUOUS
 62
    7
370
   15
100
AcDbCircle
 10
164.5886708123
 20
279.3277610652
 40
1.000000000000008
100
AcDbArc
 50
45
 51
90
  0
ARC
  5
FC
100
AcDbEntity
  8
0
  6
CONTINUOUS
 62
    7
370
   15
100
AcDbCircle
 10
124.0380682175
 20
270.3277610652
 40
10.00000000000006
100
AcDbArc
 50
90
 51
121.5568608656
  0
ARC
  5
FD
100
AcDbEntity
  8
0
  6
CONTINUOUS
 62
    7
370
   15
100
AcDbCircle
 10
115.4028843746
 20
284.3877610652
 40
6.50000000000002
100
AcDbArc
 50
238.4431391344
 51
301.5568608656
  0
ARC
  5
FE
100
AcDbEntity
  8
0
  6
CONTINUOUS
 62
    7
370
   15
100
AcDbCircle
 10
106.7677005318
 20
270.3277610652
 40
10.00000000000006
100
AcDbArc
 50
58.4431391344
 51
90
  0
LINE
  5
FF
100
AcDbEntity
  8
0
  6
CONTINUOUS
 62
    7
370
   15
100
AcDbLine
 10
91.8178679438
 20
280.3277641261
 11
106.7677037807
 21
280.3277641261
  0
ARC
  5
100
100
AcDbEntity
  8
0
  6
CONTINUOUS
 62
    7
370
   15
100
AcDbCircle
 10
91.81786683759999
 20
272.3277610652
 40
8.000000000000057
100
AcDbArc
 50
90
 51
118.0095057167
  0
ARC
  5
101
100
AcDbEntity
  8
0
  6
CONTINUOUS
 62
    7
370
   15
100
AcDbCircle
 10
85.40288437460001
 20
284.3877610652
 40
5.660000000000063
100
AcDbArc
 50
61.9904942833
 51
298.0095057167
  0
ARC
  5
102
100
AcDbEntity
  8
0
  6
CONTINUOUS
 62
    7
370
   15
100
AcDbCircle
 10
91.81786683759999
 20
296.4477610652
 40
8
100
AcDbArc
 50
241.9904942833
 51
270
  0
LINE
  5
103
100
AcDbEntity
  8
0
  6
CONTINUOUS
 62
    7
370
   15
100
AcDbLine
 10
106.7677037807
 20
288.4477644885
 11
91.8178679438
 21
288.4477644885
  0
ARC
  5
104
100
AcDbEntity
  8
0
  6
CONTINUOUS
 62
    7
370
   15
100
AcDbCircle
 10
106.7677005318
 20
298.4477610652
 40
10.00000000000003
100
AcDbArc
 50
270
 51
301.5568608656
  0
ARC
  5
105
100
AcDbEntity
  8
0
  6
CONTINUOUS
 62
    7
370
   15
100
AcDbCircle
 10
115.4028843746
 20
284.3877610652
 40
6.499999999999972
100
AcDbArc
 50
58.4431391344
 51
121.5568608656
  0
ARC
  5
106
100
AcDbEntity
  8
0
  6
CONTINUOUS
 62
    7
370
   15
100
AcDbCircle
 10
124.0380682175
 20
298.4477610652
 40
10.00000000000003
100
AcDbArc
 50
238.4431391344
 51
270
  0
ARC
  5
107
100
AcDbEntity
  8
0
  6
CONTINUOUS
 62
    7
370
   15
100
AcDbCircle
 10
164.5886708123
 20
289.4477610652
 40
1.000000000000048
100
AcDbArc
 50
270
 51
315
  0
LINE
  5
108
100
AcDbEntity
  8
0
  6
CONTINUOUS
 62
    7
370
   15
100
AcDbLine
 10
165.4028864594
 20
288.847763809
 11
165.2957769128
 21
288.7406542624
  0
LINE
  5
109
100
AcDbEntity
  8
0
  6
CONTINUOUS
 62
    7
370
   15
100
AcDbLine
 10
165.5099960061
 20
288.7406542624
 11
165.4028864594
 21
288.847763809
  0
ARC
  5
10A
100
AcDbEntity
  8
0
  6
CONTINUOUS
 62
    7
370
   15
100
AcDbCircle
 10
166.217097937
 20
289.4477610652
 40
1.000000000000028
100
AcDbArc
 50
225
 51
270
  0
ARC
  5
10B
100
AcDbEntity
  8
0
  6
CONTINUOUS
 62
    7
370
   15
100
AcDbCircle
 10
208.5093221605
 20
291.4477610652
 40
3
100
AcDbArc
 50
270
 51
330
  0
LINE
  5
10C
100
AcDbEntity
  8
0
  6
CONTINUOUS
 62
    7
370
   15
100
AcDbLine
 10
211.3614352437
 20
290.3877615655
 11
211.1074002476
 21
289.9477600778
  0
ARC
  5
10D
100
AcDbEntity
  8
0
  6
CONTINUOUS
 62
    7
370
   15
100
AcDbCircle
 10
212.2274578941
 20
289.8877610652
 40
1.000000000000004
100
AcDbArc
 50
90
 51
150
  0
LINE
  5
10E
100
AcDbEntity
  8
0
  6
CONTINUOUS
 62
    7
370
   15
100
AcDbLine
 10
218.5783060284
 20
290.8877625788
 11
212.2274609299
 21
290.8877625788
  0
LINE
  5
10F
100
AcDbEntity
  8
0
  6
CONTINUOUS
 62
    7
370
   15
100
AcDbLine
 10
238.987904975
 20
288.4477644885
 11
222.2964437695
 21
288.4477644885
  0
LINE
  5
110
100
AcDbEntity
  8
0
  6
CONTINUOUS
 62
    7
370
   15
100
AcDbLine
 10
222.2964437695
 20
280.3277641261
 11
238.987904975
 21
280.3277641261
  0
LINE
  5
111
100
AcDbEntity
  8
0
  6
CONTINUOUS
 62
    7
370
   15
100
AcDbLine
 10
166.2171008082
 20
280.3277641261
 11
208.5093231888
 21
280.3277641261
  0
LINE
  5
112
100
AcDbEntity
  8
0
  6
CONTINUOUS
 62
    7
370
   15
100
AcDbLine
 10
164.5886721106
 20
288.4477644885
 11
124.038067648
 21
288.4477644885
  0
LINE
  5
113
100
AcDbEntity
  8
0
  6
CONTINUOUS
 62
    7
370
   15
100
AcDbLine
 10
124.038067648
 20
280.3277641261
 11
164.5886721106
 21
280.3277641261
  0
LINE
  5
114
100
AcDbEntity
  8
0
  6
CONTINUOUS
 62
    7
370
   15
100
AcDbLine
 10
208.5093231888
 20
288.4477644885
 11
166.2171008082
 21
288.4477644885
  0
CIRCLE
  5
115
100
AcDbEntity
  8
0
  6
CONTINUOUS
 62
    7
370
   15
100
AcDbCircle
 10
245.4028843746
 20
304.3877610652
 40
2.438076211353319
  0
CIRCLE
  5
116
100
AcDbEntity
  8
0
  6
CONTINUOUS
 62
    7
370
   15
100
AcDbCircle
 10
215.4028843746
 20
304.3877610652
 40
1.640000000000043
  0
CIRCLE
  5
117
100
AcDbEntity
  8
0
  6
CONTINUOUS
 62
    7
370
   15
100
AcDbCircle
 10
115.4028843746
 20
304.3877610652
 40
1.340000000000003
  0
CIRCLE
  5
118
100
AcDbEntity
  8
0
  6
CONTINUOUS
 62
    7
370
   15
100
AcDbCircle
 10
85.40288437460001
 20
304.3877610652
 40
2.438076211353348
  0
ARC
  5
119
100
AcDbEntity
  8
0
  6
CONTINUOUS
 62
    7
370
   15
100
AcDbCircle
 10
218.5783108552
 20
309.8877610652
 40
1.000000000000008
100
AcDbArc
 50
30
 51
90
  0
LINE
  5
11A
100
AcDbEntity
  8
0
  6
CONTINUOUS
 62
    7
370
   15
100
AcDbLine
 10
219.6983667107
 20
309.9477600778
 11
219.4443317147
 21
310.3877615655
  0
ARC
  5
11B
100
AcDbEntity
  8
0
  6
CONTINUOUS
 62
    7
370
   15
100
AcDbCircle
 10
222.2964465888
 20
311.4477610652
 40
3
100
AcDbArc
 50
210
 51
270
  0
ARC
  5
11C
100
AcDbEntity
  8
0
  6
CONTINUOUS
 62
    7
370
   15
100
AcDbCircle
 10
238.9879019117
 20
316.4477610652
 40
8
100
AcDbArc
 50
270
 51
298.0095057167
  0
ARC
  5
11D
100
AcDbEntity
  8
0
  6
CONTINUOUS
 62
    7
370
   15
100
AcDbCircle
 10
245.4028843746
 20
304.3877610652
 40
5.660000000000049
100
AcDbArc
 50
241.9904942833
 51
118.0095057167
  0
ARC
  5
11E
100
AcDbEntity
  8
0
  6
CONTINUOUS
 62
    7
370
   15
100
AcDbCircle
 10
238.9879019117
 20
292.3277610652
 40
8.000000000000057
100
AcDbArc
 50
61.9904942833
 51
90
  0
ARC
  5
11F
100
AcDbEntity
  8
0
  6
CONTINUOUS
 62
    7
370
   15
100
AcDbCircle
 10
222.2964465888
 20
297.3277610652
 40
3
100
AcDbArc
 50
90
 51
150
  0
LINE
  5
120
100
AcDbEntity
  8
0
  6
CONTINUOUS
 62
    7
370
   15
100
AcDbLine
 10
219.4443317147
 20
298.3877595986
 11
219.6983667107
 21
298.8277610863
  0
ARC
  5
121
100
AcDbEntity
  8
0
  6
CONTINUOUS
 62
    7
370
   15
100
AcDbCircle
 10
218.5783108552
 20
298.8877610652
 40
1.000000000000008
100
AcDbArc
 50
270
 51
330
  0
LINE
  5
122
100
AcDbEntity
  8
0
  6
CONTINUOUS
 62
    7
370
   15
100
AcDbLine
 10
212.2274609299
 20
297.8877585853
 11
218.5783060284
 21
297.8877585853
  0
ARC
  5
123
100
AcDbEntity
  8
0
  6
CONTINUOUS
 62
    7
370
   15
100
AcDbCircle
 10
212.2274578941
 20
298.8877610652
 40
1.000000000000033
100
AcDbArc
 50
210
 51
270
  0
LINE
  5
124
100
AcDbEntity
  8
0
  6
CONTINUOUS
 62
    7
370
   15
100
AcDbLine
 10
211.1074002476
 20
298.8277610863
 11
211.3614352437
 21
298.3877595986
  0
ARC
  5
125
100
AcDbEntity
  8
0
  6
CONTINUOUS
 62
    7
370
   15
100
AcDbCircle
 10
208.5093221605
 20
297.3277610652
 40
3
100
AcDbArc
 50
30
 51
90
  0
ARC
  5
126
100
AcDbEntity
  8
0
  6
CONTINUOUS
 62
    7
370
   15
100
AcDbCircle
 10
166.217097937
 20
299.3277610652
 40
1
100
AcDbArc
 50
90
 51
135
  0
LINE
  5
127
100
AcDbEntity
  8
0
  6
CONTINUOUS
 62
    7
370
   15
100
AcDbLine
 10
165.4028864594
 20
299.927757355
 11
165.5099960061
 21
300.0348669017
  0
LINE
  5
128
100
AcDbEntity
  8
0
  6
CONTINUOUS
 62
    7
370
   15
100
AcDbLine
 10
165.2957769128
 20
300.0348669017
 11
165.4028864594
 21
299.927757355
  0
ARC
  5
129
100
AcDbEntity
  8
0
  6
CONTINUOUS
 62
    7
370
   15
100
AcDbCircle
 10
164.5886708123
 20
299.3277610652
 40
1.000000000000008
100
AcDbArc
 50
45
 51
90
  0
ARC
  5
12A
100
AcDbEntity
  8
0
  6
CONTINUOUS
 62
    7
370
   15
100
AcDbCircle
 10
124.0380682175
 20
290.3277610652
 40
10.00000000000006
100
AcDbArc
 50
90
 51
121.5568608656
  0
ARC
  5
12B
100
AcDbEntity
  8
0
  6
CONTINUOUS
 62
    7
370
   15
100
AcDbCircle
 10
115.4028843746
 20
304.3877610652
 40
6.50000000000002
100
AcDbArc
 50
238.4431391344
 51
301.5568608656
  0
ARC
  5
12C
100
AcDbEntity
  8
0
  6
CONTINUOUS
 62
    7
370
   15
100
AcDbCircle
 10
106.7677005318
 20
290.3277610652
 40
10.00000000000006
100
AcDbArc
 50
58.4431391344
 51
90
  0
LINE
  5
12D
100
AcDbEntity
  8
0
  6
CONTINUOUS
 62
    7
370
   15
100
AcDbLine
 10
91.8178679438
 20
300.3277641261
 11
106.7677037807
 21
300.3277641261
  0
ARC
  5
12E
100
AcDbEntity
  8
0
  6
CONTINUOUS
 62
    7
370
   15
100
AcDbCircle
 10
91.81786683759999
 20
292.3277610652
 40
8.000000000000057
100
AcDbArc
 50
90
 51
118.0095057167
  0
ARC
  5
12F
100
AcDbEntity
  8
0
  6
CONTINUOUS
 62
    7
370
   15
100
AcDbCircle
 10
85.40288437460001
 20
304.3877610652
 40
5.660000000000063
100
AcDbArc
 50
61.9904942833
 51
298.0095057167
  0
ARC
  5
130
100
AcDbEntity
  8
0
  6
CONTINUOUS
 62
    7
370
   15
100
AcDbCircle
 10
91.81786683759999
 20
316.4477610652
 40
8
100
AcDbArc
 50
241.9904942833
 51
270
  0
LINE
  5
131
100
AcDbEntity
  8
0
  6
CONTINUOUS
 62
    7
370
   15
100
AcDbLine
 10
106.7677037807
 20
308.4477644885
 11
91.8178679438
 21
308.4477644885
  0
ARC
  5
132
100
AcDbEntity
  8
0
  6
CONTINUOUS
 62
    7
370
   15
100
AcDbCircle
 10
106.7677005318
 20
318.4477610652
 40
10.00000000000003
100
AcDbArc
 50
270
 51
301.5568608656
  0
ARC
  5
133
100
AcDbEntity
  8
0
  6
CONTINUOUS
 62
    7
370
   15
100
AcDbCircle
 10
115.4028843746
 20
304.3877610652
 40
6.499999999999972
100
AcDbArc
 50
58.4431391344
 51
121.5568608656
  0
ARC
  5
134
100
AcDbEntity
  8
0
  6
CONTINUOUS
 62
    7
370
   15
100
AcDbCircle
 10
124.0380682175
 20
318.4477610652
 40
10.00000000000003
100
AcDbArc
 50
238.4431391344
 51
270
  0
ARC
  5
135
100
AcDbEntity
  8
0
  6
CONTINUOUS
 62
    7
370
   15
100
AcDbCircle
 10
164.5886708123
 20
309.4477610652
 40
1.000000000000048
100
AcDbArc
 50
270
 51
315
  0
LINE
  5
136
100
AcDbEntity
  8
0
  6
CONTINUOUS
 62
    7
370
   15
100
AcDbLine
 10
165.4028864594
 20
308.847763809
 11
165.2957769128
 21
308.7406542624
  0
LINE
  5
137
100
AcDbEntity
  8
0
  6
CONTINUOUS
 62
    7
370
   15
100
AcDbLine
 10
165.5099960061
 20
308.7406542624
 11
165.4028864594
 21
308.847763809
  0
ARC
  5
138
100
AcDbEntity
  8
0
  6
CONTINUOUS
 62
    7
370
   15
100
AcDbCircle
 10
166.217097937
 20
309.4477610652
 40
1.000000000000028
100
AcDbArc
 50
225
 51
270
  0
ARC
  5
139
100
AcDbEntity
  8
0
  6
CONTINUOUS
 62
    7
370
   15
100
AcDbCircle
 10
208.5093221605
 20
311.4477610652
 40
3
100
AcDbArc
 50
270
 51
330
  0
LINE
  5
13A
100
AcDbEntity
  8
0
  6
CONTINUOUS
 62
    7
370
   15
100
AcDbLine
 10
211.3614352437
 20
310.3877615655
 11
211.1074002476
 21
309.9477600778
  0
ARC
  5
13B
100
AcDbEntity
  8
0
  6
CONTINUOUS
 62
    7
370
   15
100
AcDbCircle
 10
212.2274578941
 20
309.8877610652
 40
1.000000000000004
100
AcDbArc
 50
90
 51
150
  0
LINE
  5
13C
100
AcDbEntity
  8
0
  6
CONTINUOUS
 62
    7
370
   15
100
AcDbLine
 10
218.5783060284
 20
310.8877625788
 11
212.2274609299
 21
310.8877625788
  0
LINE
  5
13D
100
AcDbEntity
  8
0
  6
CONTINUOUS
 62
    7
370
   15
100
AcDbLine
 10
238.987904975
 20
308.4477644885
 11
222.2964437695
 21
308.4477644885
  0
LINE
  5
13E
100
AcDbEntity
  8
0
  6
CONTINUOUS
 62
    7
370
   15
100
AcDbLine
 10
222.2964437695
 20
300.3277641261
 11
238.987904975
 21
300.3277641261
  0
LINE
  5
13F
100
AcDbEntity
  8
0
  6
CONTINUOUS
 62
    7
370
   15
100
AcDbLine
 10
166.2171008082
 20
300.3277641261
 11
208.5093231888
 21
300.3277641261
  0
LINE
  5
140
100
AcDbEntity
  8
0
  6
CONTINUOUS
 62
    7
370
   15
100
AcDbLine
 10
164.5886721106
 20
308.4477644885
 11
124.038067648
 21
308.4477644885
  0
LINE
  5
141
100
AcDbEntity
  8
0
  6
CONTINUOUS
 62
    7
370
   15
100
AcDbLine
 10
124.038067648
 20
300.3277641261
 11
164.5886721106
 21
300.3277641261
  0
LINE
  5
142
100
AcDbEntity
  8
0
  6
CONTINUOUS
 62
    7
370
   15
100
AcDbLine
 10
208.5093231888
 20
308.4477644885
 11
166.2171008082
 21
308.4477644885
  0
CIRCLE
  5
143
100
AcDbEntity
  8
0
  6
CONTINUOUS
 62
    7
370
   15
100
AcDbCircle
 10
245.4028843746
 20
324.3877610652
 40
2.438076211353319
  0
CIRCLE
  5
144
100
AcDbEntity
  8
0
  6
CONTINUOUS
 62
    7
370
   15
100
AcDbCircle
 10
215.4028843746
 20
324.3877610652
 40
1.640000000000043
  0
CIRCLE
  5
145
100
AcDbEntity
  8
0
  6
CONTINUOUS
 62
    7
370
   15
100
AcDbCircle
 10
115.4028843746
 20
324.3877610652
 40
1.340000000000003
  0
CIRCLE
  5
146
100
AcDbEntity
  8
0
  6
CONTINUOUS
 62
    7
370
   15
100
AcDbCircle
 10
85.40288437460001
 20
324.3877610652
 40
2.438076211353348
  0
ARC
  5
147
100
AcDbEntity
  8
0
  6
CONTINUOUS
 62
    7
370
   15
100
AcDbCircle
 10
218.5783108552
 20
329.8877610652
 40
1.000000000000008
100
AcDbArc
 50
30
 51
90
  0
LINE
  5
148
100
AcDbEntity
  8
0
  6
CONTINUOUS
 62
    7
370
   15
100
AcDbLine
 10
219.6983667107
 20
329.9477600778
 11
219.4443317147
 21
330.3877615655
  0
ARC
  5
149
100
AcDbEntity
  8
0
  6
CONTINUOUS
 62
    7
370
   15
100
AcDbCircle
 10
222.2964465888
 20
331.4477610652
 40
3
100
AcDbArc
 50
210
 51
270
  0
ARC
  5
14A
100
AcDbEntity
  8
0
  6
CONTINUOUS
 62
    7
370
   15
100
AcDbCircle
 10
238.9879019117
 20
336.4477610652
 40
8
100
AcDbArc
 50
270
 51
298.0095057167
  0
ARC
  5
14B
100
AcDbEntity
  8
0
  6
CONTINUOUS
 62
    7
370
   15
100
AcDbCircle
 10
245.4028843746
 20
324.3877610652
 40
5.660000000000049
100
AcDbArc
 50
241.9904942833
 51
118.0095057167
  0
ARC
  5
14C
100
AcDbEntity
  8
0
  6
CONTINUOUS
 62
    7
370
   15
100
AcDbCircle
 10
238.9879019117
 20
312.3277610652
 40
8.000000000000057
100
AcDbArc
 50
61.9904942833
 51
90
  0
ARC
  5
14D
100
AcDbEntity
  8
0
  6
CONTINUOUS
 62
    7
370
   15
100
AcDbCircle
 10
222.2964465888
 20
317.3277610652
 40
3
100
AcDbArc
 50
90
 51
150
  0
LINE
  5
14E
100
AcDbEntity
  8
0
  6
CONTINUOUS
 62
    7
370
   15
100
AcDbLine
 10
219.4443317147
 20
318.3877595986
 11
219.6983667107
 21
318.8277610863
  0
ARC
  5
14F
100
AcDbEntity
  8
0
  6
CONTINUOUS
 62
    7
370
   15
100
AcDbCircle
 10
218.5783108552
 20
318.8877610652
 40
1.000000000000008
100
AcDbArc
 50
270
 51
330
  0
LINE
  5
150
100
AcDbEntity
  8
0
  6
CONTINUOUS
 62
    7
370
   15
100
AcDbLine
 10
212.2274609299
 20
317.8877585853
 11
218.5783060284
 21
317.8877585853
  0
ARC
  5
151
100
AcDbEntity
  8
0
  6
CONTINUOUS
 62
    7
370
   15
100
AcDbCircle
 10
212.2274578941
 20
318.8877610652
 40
1.000000000000033
100
AcDbArc
 50
210
 51
270
  0
LINE
  5
152
100
AcDbEntity
  8
0
  6
CONTINUOUS
 62
    7
370
   15
100
AcDbLine
 10
211.1074002476
 20
318.8277610863
 11
211.3614352437
 21
318.3877595986
  0
ARC
  5
153
100
AcDbEntity
  8
0
  6
CONTINUOUS
 62
    7
370
   15
100
AcDbCircle
 10
208.5093221605
 20
317.3277610652
 40
3
100
AcDbArc
 50
30
 51
90
  0
ARC
  5
154
100
AcDbEntity
  8
0
  6
CONTINUOUS
 62
    7
370
   15
100
AcDbCircle
 10
166.217097937
 20
319.3277610652
 40
1
100
AcDbArc
 50
90
 51
135
  0
LINE
  5
155
100
AcDbEntity
  8
0
  6
CONTINUOUS
 62
    7
370
   15
100
AcDbLine
 10
165.4028864594
 20
319.927757355
 11
165.5099960061
 21
320.0348669017
  0
LINE
  5
156
100
AcDbEntity
  8
0
  6
CONTINUOUS
 62
    7
370
   15
100
AcDbLine
 10
165.2957769128
 20
320.0348669017
 11
165.4028864594
 21
319.927757355
  0
ARC
  5
157
100
AcDbEntity
  8
0
  6
CONTINUOUS
 62
    7
370
   15
100
AcDbCircle
 10
164.5886708123
 20
319.3277610652
 40
1.000000000000008
100
AcDbArc
 50
45
 51
90
  0
ARC
  5
158
100
AcDbEntity
  8
0
  6
CONTINUOUS
 62
    7
370
   15
100
AcDbCircle
 10
124.0380682175
 20
310.3277610652
 40
10.00000000000006
100
AcDbArc
 50
90
 51
121.5568608656
  0
ARC
  5
159
100
AcDbEntity
  8
0
  6
CONTINUOUS
 62
    7
370
   15
100
AcDbCircle
 10
115.4028843746
 20
324.3877610652
 40
6.50000000000002
100
AcDbArc
 50
238.4431391344
 51
301.5568608656
  0
ARC
  5
15A
100
AcDbEntity
  8
0
  6
CONTINUOUS
 62
    7
370
   15
100
AcDbCircle
 10
106.7677005318
 20
310.3277610652
 40
10.00000000000006
100
AcDbArc
 50
58.4431391344
 51
90
  0
LINE
  5
15B
100
AcDbEntity
  8
0
  6
CONTINUOUS
 62
    7
370
   15
100
AcDbLine
 10
91.8178679438
 20
320.3277641261
 11
106.7677037807
 21
320.3277641261
  0
ARC
  5
15C
100
AcDbEntity
  8
0
  6
CONTINUOUS
 62
    7
370
   15
100
AcDbCircle
 10
91.81786683759999
 20
312.3277610652
 40
8.000000000000057
100
AcDbArc
 50
90
 51
118.0095057167
  0
ARC
  5
15D
100
AcDbEntity
  8
0
  6
CONTINUOUS
 62
    7
370
   15
100
AcDbCircle
 10
85.40288437460001
 20
324.3877610652
 40
5.660000000000063
100
AcDbArc
 50
61.9904942833
 51
298.0095057167
  0
ARC
  5
15E
100
AcDbEntity
  8
0
  6
CONTINUOUS
 62
    7
370
   15
100
AcDbCircle
 10
91.81786683759999
 20
336.4477610652
 40
8
100
AcDbArc
 50
241.9904942833
 51
270
  0
LINE
  5
15F
100
AcDbEntity
  8
0
  6
CONTINUOUS
 62
    7
370
   15
100
AcDbLine
 10
106.7677037807
 20
328.4477644885
 11
91.8178679438
 21
328.4477644885
  0
ARC
  5
160
100
AcDbEntity
  8
0
  6
CONTINUOUS
 62
    7
370
   15
100
AcDbCircle
 10
106.7677005318
 20
338.4477610652
 40
10.00000000000003
100
AcDbArc
 50
270
 51
301.5568608656
  0
ARC
  5
161
100
AcDbEntity
  8
0
  6
CONTINUOUS
 62
    7
370
   15
100
AcDbCircle
 10
115.4028843746
 20
324.3877610652
 40
6.499999999999972
100
AcDbArc
 50
58.4431391344
 51
121.5568608656
  0
ARC
  5
162
100
AcDbEntity
  8
0
  6
CONTINUOUS
 62
    7
370
   15
100
AcDbCircle
 10
124.0380682175
 20
338.4477610652
 40
10.00000000000003
100
AcDbArc
 50
238.4431391344
 51
270
  0
ARC
  5
163
100
AcDbEntity
  8
0
  6
CONTINUOUS
 62
    7
370
   15
100
AcDbCircle
 10
164.5886708123
 20
329.4477610652
 40
1.000000000000048
100
AcDbArc
 50
270
 51
315
  0
LINE
  5
164
100
AcDbEntity
  8
0
  6
CONTINUOUS
 62
    7
370
   15
100
AcDbLine
 10
165.4028864594
 20
328.847763809
 11
165.2957769128
 21
328.7406542624
  0
LINE
  5
165
100
AcDbEntity
  8
0
  6
CONTINUOUS
 62
    7
370
   15
100
AcDbLine
 10
165.5099960061
 20
328.7406542624
 11
165.4028864594
 21
328.847763809
  0
ARC
  5
166
100
AcDbEntity
  8
0
  6
CONTINUOUS
 62
    7
370
   15
100
AcDbCircle
 10
166.217097937
 20
329.4477610652
 40
1.000000000000028
100
AcDbArc
 50
225
 51
270
  0
ARC
  5
167
100
AcDbEntity
  8
0
  6
CONTINUOUS
 62
    7
370
   15
100
AcDbCircle
 10
208.5093221605
 20
331.4477610652
 40
3
100
AcDbArc
 50
270
 51
330
  0
LINE
  5
168
100
AcDbEntity
  8
0
  6
CONTINUOUS
 62
    7
370
   15
100
AcDbLine
 10
211.3614352437
 20
330.3877615655
 11
211.1074002476
 21
329.9477600778
  0
ARC
  5
169
100
AcDbEntity
  8
0
  6
CONTINUOUS
 62
    7
370
   15
100
AcDbCircle
 10
212.2274578941
 20
329.8877610652
 40
1.000000000000004
100
AcDbArc
 50
90
 51
150
  0
LINE
  5
16A
100
AcDbEntity
  8
0
  6
CONTINUOUS
 62
    7
370
   15
100
AcDbLine
 10
218.5783060284
 20
330.8877625788
 11
212.2274609299
 21
330.8877625788
  0
LINE
  5
16B
100
AcDbEntity
  8
0
  6
CONTINUOUS
 62
    7
370
   15
100
AcDbLine
 10
238.987904975
 20
328.4477644885
 11
222.2964437695
 21
328.4477644885
  0
LINE
  5
16C
100
AcDbEntity
  8
0
  6
CONTINUOUS
 62
    7
370
   15
100
AcDbLine
 10
222.2964437695
 20
320.3277641261
 11
238.987904975
 21
320.3277641261
  0
LINE
  5
16D
100
AcDbEntity
  8
0
  6
CONTINUOUS
 62
    7
370
   15
100
AcDbLine
 10
166.2171008082
 20
320.3277641261
 11
208.5093231888
 21
320.3277641261
  0
LINE
  5
16E
100
AcDbEntity
  8
0
  6
CONTINUOUS
 62
    7
370
   15
100
AcDbLine
 10
164.5886721106
 20
328.4477644885
 11
124.038067648
 21
328.4477644885
  0
LINE
  5
16F
100
AcDbEntity
  8
0
  6
CONTINUOUS
 62
    7
370
   15
100
AcDbLine
 10
124.038067648
 20
320.3277641261
 11
164.5886721106
 21
320.3277641261
  0
LINE
  5
170
100
AcDbEntity
  8
0
  6
CONTINUOUS
 62
    7
370
   15
100
AcDbLine
 10
208.5093231888
 20
328.4477644885
 11
166.2171008082
 21
328.4477644885
  0
CIRCLE
  5
171
100
AcDbEntity
  8
0
  6
CONTINUOUS
 62
    7
370
   15
100
AcDbCircle
 10
245.4028843746
 20
344.3877610652
 40
2.438076211353319
  0
CIRCLE
  5
172
100
AcDbEntity
  8
0
  6
CONTINUOUS
 62
    7
370
   15
100
AcDbCircle
 10
215.4028843746
 20
344.3877610652
 40
1.640000000000043
  0
CIRCLE
  5
173
100
AcDbEntity
  8
0
  6
CONTINUOUS
 62
    7
370
   15
100
AcDbCircle
 10
115.4028843746
 20
344.3877610652
 40
1.340000000000003
  0
CIRCLE
  5
174
100
AcDbEntity
  8
0
  6
CONTINUOUS
 62
    7
370
   15
100
AcDbCircle
 10
85.40288437460001
 20
344.3877610652
 40
2.438076211353348
  0
ARC
  5
175
100
AcDbEntity
  8
0
  6
CONTINUOUS
 62
    7
370
   15
100
AcDbCircle
 10
218.5783108552
 20
349.8877610652
 40
1.000000000000008
100
AcDbArc
 50
30
 51
90
  0
LINE
  5
176
100
AcDbEntity
  8
0
  6
CONTINUOUS
 62
    7
370
   15
100
AcDbLine
 10
219.6983667107
 20
349.9477600778
 11
219.4443317147
 21
350.3877615655
  0
ARC
  5
177
100
AcDbEntity
  8
0
  6
CONTINUOUS
 62
    7
370
   15
100
AcDbCircle
 10
222.2964465888
 20
351.4477610652
 40
3
100
AcDbArc
 50
210
 51
270
  0
ARC
  5
178
100
AcDbEntity
  8
0
  6
CONTINUOUS
 62
    7
370
   15
100
AcDbCircle
 10
238.9879019117
 20
356.4477610652
 40
8
100
AcDbArc
 50
270
 51
298.0095057167
  0
ARC
  5
179
100
AcDbEntity
  8
0
  6
CONTINUOUS
 62
    7
370
   15
100
AcDbCircle
 10
245.4028843746
 20
344.3877610652
 40
5.660000000000049
100
AcDbArc
 50
241.9904942833
 51
118.0095057167
  0
ARC
  5
17A
100
AcDbEntity
  8
0
  6
CONTINUOUS
 62
    7
370
   15
100
AcDbCircle
 10
238.9879019117
 20
332.3277610652
 40
8.000000000000057
100
AcDbArc
 50
61.9904942833
 51
90
  0
ARC
  5
17B
100
AcDbEntity
  8
0
  6
CONTINUOUS
 62
    7
370
   15
100
AcDbCircle
 10
222.2964465888
 20
337.3277610652
 40
3
100
AcDbArc
 50
90
 51
150
  0
LINE
  5
17C
100
AcDbEntity
  8
0
  6
CONTINUOUS
 62
    7
370
   15
100
AcDbLine
 10
219.4443317147
 20
338.3877595986
 11
219.6983667107
 21
338.8277610863
  0
ARC
  5
17D
100
AcDbEntity
  8
0
  6
CONTINUOUS
 62
    7
370
   15
100
AcDbCircle
 10
218.5783108552
 20
338.8877610652
 40
1.000000000000008
100
AcDbArc
 50
270
 51
330
  0
LINE
  5
17E
100
AcDbEntity
  8
0
  6
CONTINUOUS
 62
    7
370
   15
100
AcDbLine
 10
212.2274609299
 20
337.8877585853
 11
218.5783060284
 21
337.8877585853
  0
ARC
  5
17F
100
AcDbEntity
  8
0
  6
CONTINUOUS
 62
    7
370
   15
100
AcDbCircle
 10
212.2274578941
 20
338.8877610652
 40
1.000000000000033
100
AcDbArc
 50
210
 51
270
  0
LINE
  5
180
100
AcDbEntity
  8
0
  6
CONTINUOUS
 62
    7
370
   15
100
AcDbLine
 10
211.1074002476
 20
338.8277610863
 11
211.3614352437
 21
338.3877595986
  0
ARC
  5
181
100
AcDbEntity
  8
0
  6
CONTINUOUS
 62
    7
370
   15
100
AcDbCircle
 10
208.5093221605
 20
337.3277610652
 40
3
100
AcDbArc
 50
30
 51
90
  0
ARC
  5
182
100
AcDbEntity
  8
0
  6
CONTINUOUS
 62
    7
370
   15
100
AcDbCircle
 10
166.217097937
 20
339.3277610652
 40
1
100
AcDbArc
 50
90
 51
135
  0
LINE
  5
183
100
AcDbEntity
  8
0
  6
CONTINUOUS
 62
    7
370
   15
100
AcDbLine
 10
165.4028864594
 20
339.927757355
 11
165.5099960061
 21
340.0348669017
  0
LINE
  5
184
100
AcDbEntity
  8
0
  6
CONTINUOUS
 62
    7
370
   15
100
AcDbLine
 10
165.2957769128
 20
340.0348669017
 11
165.4028864594
 21
339.927757355
  0
ARC
  5
185
100
AcDbEntity
  8
0
  6
CONTINUOUS
 62
    7
370
   15
100
AcDbCircle
 10
164.5886708123
 20
339.3277610652
 40
1.000000000000008
100
AcDbArc
 50
45
 51
90
  0
ARC
  5
186
100
AcDbEntity
  8
0
  6
CONTINUOUS
 62
    7
370
   15
100
AcDbCircle
 10
124.0380682175
 20
330.3277610652
 40
10.00000000000006
100
AcDbArc
 50
90
 51
121.5568608656
  0
ARC
  5
187
100
AcDbEntity
  8
0
  6
CONTINUOUS
 62
    7
370
   15
100
AcDbCircle
 10
115.4028843746
 20
344.3877610652
 40
6.50000000000002
100
AcDbArc
 50
238.4431391344
 51
301.5568608656
  0
ARC
  5
188
100
AcDbEntity
  8
0
  6
CONTINUOUS
 62
    7
370
   15
100
AcDbCircle
 10
106.7677005318
 20
330.3277610652
 40
10.00000000000006
100
AcDbArc
 50
58.4431391344
 51
90
  0
LINE
  5
189
100
AcDbEntity
  8
0
  6
CONTINUOUS
 62
    7
370
   15
100
AcDbLine
 10
91.8178679438
 20
340.3277641261
 11
106.7677037807
 21
340.3277641261
  0
ARC
  5
18A
100
AcDbEntity
  8
0
  6
CONTINUOUS
 62
    7
370
   15
100
AcDbCircle
 10
91.81786683759999
 20
332.3277610652
 40
8.000000000000057
100
AcDbArc
 50
90
 51
118.0095057167
  0
ARC
  5
18B
100
AcDbEntity
  8
0
  6
CONTINUOUS
 62
    7
370
   15
100
AcDbCircle
 10
85.40288437460001
 20
344.3877610652
 40
5.660000000000063
100
AcDbArc
 50
61.9904942833
 51
298.0095057167
  0
ARC
  5
18C
100
AcDbEntity
  8
0
  6
CONTINUOUS
 62
    7
370
   15
100
AcDbCircle
 10
91.81786683759999
 20
356.4477610652
 40
8
100
AcDbArc
 50
241.9904942833
 51
270
  0
LINE
  5
18D
100
AcDbEntity
  8
0
  6
CONTINUOUS
 62
    7
370
   15
100
AcDbLine
 10
106.7677037807
 20
348.4477644885
 11
91.8178679438
 21
348.4477644885
  0
ARC
  5
18E
100
AcDbEntity
  8
0
  6
CONTINUOUS
 62
    7
370
   15
100
AcDbCircle
 10
106.7677005318
 20
358.4477610652
 40
10.00000000000003
100
AcDbArc
 50
270
 51
301.5568608656
  0
ARC
  5
18F
100
AcDbEntity
  8
0
  6
CONTINUOUS
 62
    7
370
   15
100
AcDbCircle
 10
115.4028843746
 20
344.3877610652
 40
6.499999999999972
100
AcDbArc
 50
58.4431391344
 51
121.5568608656
  0
ARC
  5
190
100
AcDbEntity
  8
0
  6
CONTINUOUS
 62
    7
370
   15
100
AcDbCircle
 10
124.0380682175
 20
358.4477610652
 40
10.00000000000003
100
AcDbArc
 50
238.4431391344
 51
270
  0
ARC
  5
191
100
AcDbEntity
  8
0
  6
CONTINUOUS
 62
    7
370
   15
100
AcDbCircle
 10
164.5886708123
 20
349.4477610652
 40
1.000000000000048
100
AcDbArc
 50
270
 51
315
  0
LINE
  5
192
100
AcDbEntity
  8
0
  6
CONTINUOUS
 62
    7
370
   15
100
AcDbLine
 10
165.4028864594
 20
348.847763809
 11
165.2957769128
 21
348.7406542624
  0
LINE
  5
193
100
AcDbEntity
  8
0
  6
CONTINUOUS
 62
    7
370
   15
100
AcDbLine
 10
165.5099960061
 20
348.7406542624
 11
165.4028864594
 21
348.847763809
  0
ARC
  5
194
100
AcDbEntity
  8
0
  6
CONTINUOUS
 62
    7
370
   15
100
AcDbCircle
 10
166.217097937
 20
349.4477610652
 40
1.000000000000028
100
AcDbArc
 50
225
 51
270
  0
ARC
  5
195
100
AcDbEntity
  8
0
  6
CONTINUOUS
 62
    7
370
   15
100
AcDbCircle
 10
208.5093221605
 20
351.4477610652
 40
3
100
AcDbArc
 50
270
 51
330
  0
LINE
  5
196
100
AcDbEntity
  8
0
  6
CONTINUOUS
 62
    7
370
   15
100
AcDbLine
 10
211.3614352437
 20
350.3877615655
 11
211.1074002476
 21
349.9477600778
  0
ARC
  5
197
100
AcDbEntity
  8
0
  6
CONTINUOUS
 62
    7
370
   15
100
AcDbCircle
 10
212.2274578941
 20
349.8877610652
 40
1.000000000000004
100
AcDbArc
 50
90
 51
150
  0
LINE
  5
198
100
AcDbEntity
  8
0
  6
CONTINUOUS
 62
    7
370
   15
100
AcDbLine
 10
218.5783060284
 20
350.8877625788
 11
212.2274609299
 21
350.8877625788
  0
LINE
  5
199
100
AcDbEntity
  8
0
  6
CONTINUOUS
 62
    7
370
   15
100
AcDbLine
 10
238.987904975
 20
348.4477644885
 11
222.2964437695
 21
348.4477644885
  0
LINE
  5
19A
100
AcDbEntity
  8
0
  6
CONTINUOUS
 62
    7
370
   15
100
AcDbLine
 10
222.2964437695
 20
340.3277641261
 11
238.987904975
 21
340.3277641261
  0
LINE
  5
19B
100
AcDbEntity
  8
0
  6
CONTINUOUS
 62
    7
370
   15
100
AcDbLine
 10
166.2171008082
 20
340.3277641261
 11
208.5093231888
 21
340.3277641261
  0
LINE
  5
19C
100
AcDbEntity
  8
0
  6
CONTINUOUS
 62
    7
370
   15
100
AcDbLine
 10
164.5886721106
 20
348.4477644885
 11
124.038067648
 21
348.4477644885
  0
LINE
  5
19D
100
AcDbEntity
  8
0
  6
CONTINUOUS
 62
    7
370
   15
100
AcDbLine
 10
124.038067648
 20
340.3277641261
 11
164.5886721106
 21
340.3277641261
  0
LINE
  5
19E
100
AcDbEntity
  8
0
  6
CONTINUOUS
 62
    7
370
   15
100
AcDbLine
 10
208.5093231888
 20
348.4477644885
 11
166.2171008082
 21
348.4477644885
  0
ENDSEC
  0
SECTION
  2
OBJECTS
  0
DICTIONARY
  5
C
330
0
100
AcDbDictionary
281
    1
  3
ACAD_GROUP
350
D
  0
DICTIONARY
  5
D
330
C
100
AcDbDictionary
281
    1
  0
ENDSEC
  0
EOF
