999
dxfrw 0.6.3
  0
SECTION
  2
HEADER
  9
$ACADVER
  1
AC1021
  9
$DWGCODEPAGE
  3
ANSI_1252
  9
$INSBASE
 10
0
 20
0
 30
0
  9
$EXTMIN
 10
4.92442787720387
 20
5.687201488093962
 30
0
  9
$EXTMAX
 10
576.3935355943821
 20
237
 30
0
  9
$LIMMIN
 10
0
 20
0
  9
$LIMMAX
 10
420
 20
297
  9
$ORTHOMODE
 70
    0
  9
$REGENMODE
 70
    1
  9
$FILLMODE
 70
    1
  9
$QTEXTMODE
 70
    0
  9
$MIRRTEXT
 70
    1
  9
$LTSCALE
 40
1
  9
$ATTMODE
 70
    1
  9
$TEXTSIZE
 40
3.5
  9
$TRACEWID
 40
1
  9
$TEXTSTYLE
  7
STANDARD
  9
$CLAYER
  8
0
  9
$CELTYPE
  6
BYLAYER
  9
$CECOLOR
 62
  256
  9
$CELTSCALE
 40
1
  9
$DISPSILH
 70
    0
  9
$DIMSCALE
 40
1
  9
$DIMASZ
 40
3.556
  9
$DIMEXO
 40
1
  9
$DIMDLI
 40
3.75
  9
$DIMRND
 40
0
  9
$DIMDLE
 40
0
  9
$DIMEXE
 40
1
  9
$DIMTP
 40
0
  9
$DIMTM
 40
0
  9
$DIMTXT
 40
3.5
  9
$DIMCEN
 40
2.5
  9
$DIMTSZ
 40
0
  9
$DIMTOL
 70
    0
  9
$DIMLIM
 70
    0
  9
$DIMTIH
 70
    1
  9
$DIMTOH
 70
    1
  9
$DIMSE1
 70
    0
  9
$DIMSE2
 70
    0
  9
$DIMTAD
 70
    1
  9
$DIMZIN
 70
    0
  9
$DIMBLK
  1

  9
$DIMASO
 70
    1
  9
$DIMSHO
 70
    1
  9
$DIMPOST
  1

  9
$DIMAPOST
  1

  9
$DIMALT
 70
    0
  9
$DIMALTD
 70
    3
  9
$DIMALTF
 40
0.0393700787
  9
$DIMLFAC
 40
1
  9
$DIMTOFL
 70
    1
  9
$DIMTVP
 40
0
  9
$DIMTIX
 70
    0
  9
$DIMSOXD
 70
    0
  9
$DIMSAH
 70
    0
  9
$DIMBLK1
  1

  9
$DIMBLK2
  1

  9
$DIMSTYLE
  2
ISO-25
  9
$DIMCLRD
 70
    0
  9
$DIMCLRE
 70
    0
  9
$DIMCLRT
 70
    0
  9
$DIMTFAC
 40
1
  9
$DIMGAP
 40
1.524
  9
$DIMJUST
 70
    0
  9
$DIMSD1
 70
    0
  9
$DIMSD2
 70
    0
  9
$DIMTOLJ
 70
    0
  9
$DIMTZIN
 70
    0
  9
$DIMALTZ
 70
    0
  9
$DIMALTTZ
 70
    0
  9
$DIMUPT
 70
    0
  9
$DIMDEC
 70
    2
  9
$DIMTDEC
 70
    2
  9
$DIMALTU
 70
    2
  9
$DIMALTTD
 70
    3
  9
$DIMTXSTY
  7
standard
  9
$DIMAUNIT
 70
    0
  9
$DIMADEC
 70
    0
  9
$DIMALTRND
 40
0
  9
$DIMAZIN
 70
    0
  9
$DIMDSEP
 70
   44
  9
$DIMATFIT
 70
    3
  9
$DIMFRAC
 70
    0
  9
$DIMLDRBLK
  1
STANDARD
  9
$DIMLUNIT
 70
    2
  9
$DIMLWD
 70
   -2
  9
$DIMLWE
 70
   -2
  9
$DIMTMOVE
 70
    0
  9
$DIMFXL
 40
1
  9
$DIMFXLON
 70
    0
  9
$DIMJOGANG
 40
0.7854
  9
$DIMTFILL
 70
    0
  9
$DIMTFILLCLR
 70
    0
  9
$DIMARCSYM
 70
    0
  9
$DIMLTYPE
  6

  9
$DIMLTEX1
  6

  9
$DIMLTEX2
  6

  9
$LUNITS
 70
    2
  9
$LUPREC
 70
    2
  9
$SKETCHINC
 40
1
  9
$FILLETRAD
 40
10
  9
$AUNITS
 70
    0
  9
$AUPREC
 70
    2
  9
$MENU
  1
.
  9
$ELEVATION
 40
0
  9
$PELEVATION
 40
0
  9
$THICKNESS
 40
0
  9
$LIMCHECK
 70
    0
  9
$CHAMFERA
 40
0
  9
$CHAMFERB
 40
0
  9
$CHAMFERC
 40
0
  9
$CHAMFERD
 40
0
  9
$SKPOLY
 70
    0
  9
$USRTIMER
 70
    1
  9
$ANGBASE
 50
0
  9
$ANGDIR
 70
    0
  9
$PDMODE
 70
    0
  9
$PDSIZE
 40
-1
  9
$PLINEWID
 40
0
  9
$SPLFRAME
 70
    0
  9
$SPLINETYPE
 70
    6
  9
$SPLINESEGS
 70
    8
  9
$HANDSEED
  5
20000
  9
$SURFTAB1
 70
    6
  9
$SURFTAB2
 70
    6
  9
$SURFTYPE
 70
    6
  9
$SURFU
 70
    6
  9
$SURFV
 70
    6
  9
$UCSBASE
  2

  9
$UCSNAME
  2

  9
$UCSORG
 10
0
 20
0
 30
0
  9
$UCSXDIR
 10
1
 20
0
 30
0
  9
$UCSYDIR
 10
0
 20
1
 30
0
  9
$UCSORTHOREF
  2

  9
$UCSORTHOVIEW
 70
    0
  9
$UCSORGTOP
 10
0
 20
0
 30
0
  9
$UCSORGBOTTOM
 10
0
 20
0
 30
0
  9
$UCSORGLEFT
 10
0
 20
0
 30
0
  9
$UCSORGRIGHT
 10
0
 20
0
 30
0
  9
$UCSORGFRONT
 10
0
 20
0
 30
0
  9
$UCSORGBACK
 10
0
 20
0
 30
0
  9
$PUCSBASE
  2

  9
$PUCSNAME
  2

  9
$PUCSORG
 10
0
 20
0
 30
0
  9
$PUCSXDIR
 10
1
 20
0
 30
0
  9
$PUCSYDIR
 10
0
 20
1
 30
0
  9
$PUCSORTHOREF
  2

  9
$PUCSORTHOVIEW
 70
    0
  9
$PUCSORGTOP
 10
0
 20
0
 30
0
  9
$PUCSORGBOTTOM
 10
0
 20
0
 30
0
  9
$PUCSORGLEFT
 10
0
 20
0
 30
0
  9
$PUCSORGRIGHT
 10
0
 20
0
 30
0
  9
$PUCSORGFRONT
 10
0
 20
0
 30
0
  9
$PUCSORGBACK
 10
0
 20
0
 30
0
  9
$USERI1
 70
    0
  9
$USERI2
 70
    0
  9
$USERI3
 70
    0
  9
$USERI4
 70
    0
  9
$USERI5
 70
    0
  9
$USERR1
 40
0
  9
$USERR2
 40
0
  9
$USERR3
 40
0
  9
$USERR4
 40
0
  9
$USERR5
 40
0
  9
$WORLDVIEW
 70
    1
  9
$SHADEDGE
 70
    3
  9
$SHADEDIF
 70
   70
  9
$TILEMODE
 70
    1
  9
$MAXACTVP
 70
   64
  9
$PINSBASE
 10
0
 20
0
 30
0
  9
$PLIMCHECK
 70
    0
  9
$PEXTMIN
 10
1e+20
 20
1e+20
 30
1e+20
  9
$PEXTMAX
 10
-1e+20
 20
-1e+20
 30
-1e+20
  9
$GRIDMODE
 70
    1
  9
$SNAPSTYLE
 70
    0
  9
$GRIDUNIT
 10
0
 20
0
  9
$PLIMMIN
 10
0
 20
0
  9
$PLIMMAX
 10
420
 20
297
  9
$UNITMODE
 70
    0
  9
$VISRETAIN
 70
    1
  9
$PLINEGEN
 70
    0
  9
$PSLTSCALE
 70
    1
  9
$TREEDEPTH
 70
 3020
  9
$CMLSTYLE
  2
STANDARD
  9
$CMLJUST
 70
    0
  9
$CMLSCALE
 40
20
  9
$PROXYGRAPHICS
 70
    1
  9
$MEASUREMENT
 70
    1
  9
$CELWEIGHT
370
   -1
  9
$ENDCAPS
280
    0
  9
$JOINSTYLE
280
    0
  9
$LWDISPLAY
290
    0
  9
$INSUNITS
 70
    4
  9
$HYPERLINKBASE
  1

  9
$STYLESHEET
  1

  9
$XEDIT
290
    1
  9
$CEPSNTYPE
380
    0
  9
$PSTYLEMODE
290
    1
  9
$EXTNAMES
290
    1
  9
$PSVPSCALE
 40
1
  9
$OLESTARTUP
290
    0
  9
$SORTENTS
280
  127
  9
$INDEXCTL
280
    0
  9
$HIDETEXT
280
    1
  9
$XCLIPFRAME
290
    0
  9
$HALOGAP
280
    0
  9
$OBSCOLOR
 70
  257
  9
$OBSLTYPE
280
    0
  9
$INTERSECTIONDISPLAY
280
    0
  9
$INTERSECTIONCOLOR
 70
  257
  9
$DIMASSOC
280
    1
  9
$PROJECTNAME
  1

  9
$CAMERADISPLAY
290
    0
  9
$LENSLENGTH
 40
50
  9
$CAMERAHEIGHT
 40
0
  9
$STEPSPERSEC
 40
2
  9
$STEPSIZE
 40
50
  9
$3DDWFPREC
 40
2
  9
$PSOLWIDTH
 40
5
  9
$PSOLHEIGHT
 40
80
  9
$LOFTANG1
 40
1.570796326794897
  9
$LOFTANG2
 40
1.570796326794897
  9
$LOFTMAG1
 40
0
  9
$LOFTMAG2
 40
0
  9
$LOFTPARAM
 70
    7
  9
$LOFTNORMALS
280
    1
  9
$LATITUDE
 40
1
  9
$LONGITUDE
 40
1
  9
$NORTHDIRECTION
 40
0
  9
$TIMEZONE
 70
-8000
  9
$LIGHTGLYPHDISPLAY
280
    1
  9
$TILEMODELIGHTSYNCH
280
    1
  9
$SOLIDHIST
280
    1
  9
$SHOWHIST
280
    1
  9
$DWFFRAME
280
    2
  9
$DGNFRAME
280
    0
  9
$REALWORLDSCALE
290
    1
  9
$INTERFERECOLOR
 62
    1
  9
$CSHADOW
280
    0
  9
$SHADOWPLANELOCATION
 40
0
  0
ENDSEC
  0
SECTION
  2
CLASSES
  0
ENDSEC
  0
SECTION
  2
TABLES
  0
TABLE
  2
VPORT
  5
8
330
0
100
AcDbSymbolTable
 70
    1
  0
VPORT
  5
31
330
2
100
AcDbSymbolTableRecord
100
AcDbViewportTableRecord
  2
*ACTIVE
 70
    0
 10
0
 20
0
 11
1
 21
1
 12
289.2072107987618
 22
135.5421411961177
 13
0
 23
0
 14
10
 24
10
 15
10
 25
10
 16
0
 26
0
 36
1
 17
0
 27
0
 37
0
 40
295.6099220322053
 41
1.947870778267254
 42
50
 43
0
 44
0
 50
0
 51
0
 71
    0
 72
  100
 73
    1
 74
    3
 75
    0
 76
    1
 77
    0
 78
    0
281
    0
 65
    1
110
0
120
0
130
0
111
1
121
0
131
0
112
0
122
1
132
0
 79
    0
146
0
348
10020
 60
    7
 61
    5
292
1
282
    1
141
0
142
0
 63
  250
421
3358443
  0
ENDTAB
  0
TABLE
  2
LTYPE
  5
5
330
0
100
AcDbSymbolTable
 70
    4
  0
LTYPE
  5
14
330
5
100
AcDbSymbolTableRecord
100
AcDbLinetypeTableRecord
  2
ByBlock
 70
    0
  3

 72
   65
 73
    0
 40
0
  0
LTYPE
  5
15
330
5
100
AcDbSymbolTableRecord
100
AcDbLinetypeTableRecord
  2
ByLayer
 70
    0
  3

 72
   65
 73
    0
 40
0
  0
LTYPE
  5
16
330
5
100
AcDbSymbolTableRecord
100
AcDbLinetypeTableRecord
  2
Continuous
 70
    0
  3
Solid line
 72
   65
 73
    0
 40
0
  0
LTYPE
  5
32
330
5
100
AcDbSymbolTableRecord
100
AcDbLinetypeTableRecord
  2
DOT
 70
    0
  3
Dot . . . . . . . . . . . . . . . . . . . . . .
 72
   65
 73
    2
 40
6.35
 49
0
 74
    0
 49
-6.35
 74
    0
  0
LTYPE
  5
33
330
5
100
AcDbSymbolTableRecord
100
AcDbLinetypeTableRecord
  2
DOTTINY
 70
    0
  3
Dot (.15x) .....................................
 72
   65
 73
    2
 40
0.9525
 49
0
 74
    0
 49
-0.9525
 74
    0
  0
LTYPE
  5
34
330
5
100
AcDbSymbolTableRecord
100
AcDbLinetypeTableRecord
  2
DOT2
 70
    0
  3
Dot (.5x) .....................................
 72
   65
 73
    2
 40
3.175
 49
0
 74
    0
 49
-3.175
 74
    0
  0
LTYPE
  5
35
330
5
100
AcDbSymbolTableRecord
100
AcDbLinetypeTableRecord
  2
DOTX2
 70
    0
  3
Dot (2x) .  .  .  .  .  .  .  .  .  .  .  .  .
 72
   65
 73
    2
 40
12.7
 49
0
 74
    0
 49
-12.7
 74
    0
  0
LTYPE
  5
36
330
5
100
AcDbSymbolTableRecord
100
AcDbLinetypeTableRecord
  2
DASHED
 70
    0
  3
Dashed _ _ _ _ _ _ _ _ _ _ _ _ _ _ _ _ _
 72
   65
 73
    2
 40
19.05
 49
12.7
 74
    0
 49
-6.35
 74
    0
  0
LTYPE
  5
37
330
5
100
AcDbSymbolTableRecord
100
AcDbLinetypeTableRecord
  2
DASHEDTINY
 70
    0
  3
Dashed (.15x) _ _ _ _ _ _ _ _ _ _ _ _ _ _ _ _ _
 72
   65
 73
    2
 40
2.8575
 49
1.905
 74
    0
 49
-0.9525
 74
    0
  0
LTYPE
  5
38
330
5
100
AcDbSymbolTableRecord
100
AcDbLinetypeTableRecord
  2
DASHED2
 70
    0
  3
Dashed (.5x) _ _ _ _ _ _ _ _ _ _ _ _ _ _ _ _ _
 72
   65
 73
    2
 40
9.524999999999999
 49
6.35
 74
    0
 49
-3.175
 74
    0
  0
LTYPE
  5
39
330
5
100
AcDbSymbolTableRecord
100
AcDbLinetypeTableRecord
  2
DASHEDX2
 70
    0
  3
Dashed (2x) ____  ____  ____  ____  ____  ___
 72
   65
 73
    2
 40
38.09999999999999
 49
25.4
 74
    0
 49
-12.7
 74
    0
  0
LTYPE
  5
3A
330
5
100
AcDbSymbolTableRecord
100
AcDbLinetypeTableRecord
  2
DASHDOT
 70
    0
  3
Dash dot __ . __ . __ . __ . __ . __ . __ . __
 72
   65
 73
    4
 40
25.4
 49
12.7
 74
    0
 49
-6.35
 74
    0
 49
0
 74
    0
 49
-6.35
 74
    0
  0
LTYPE
  5
3B
330
5
100
AcDbSymbolTableRecord
100
AcDbLinetypeTableRecord
  2
DASHDOTTINY
 70
    0
  3
Dash dot (.15x) _._._._._._._._._._._._._._._.
 72
   65
 73
    4
 40
3.81
 49
1.905
 74
    0
 49
-0.9525
 74
    0
 49
0
 74
    0
 49
-0.9525
 74
    0
  0
LTYPE
  5
3C
330
5
100
AcDbSymbolTableRecord
100
AcDbLinetypeTableRecord
  2
DASHDOT2
 70
    0
  3
Dash dot (.5x) _._._._._._._._._._._._._._._.
 72
   65
 73
    4
 40
12.7
 49
6.35
 74
    0
 49
-3.175
 74
    0
 49
0
 74
    0
 49
-3.175
 74
    0
  0
LTYPE
  5
3D
330
5
100
AcDbSymbolTableRecord
100
AcDbLinetypeTableRecord
  2
DASHDOTX2
 70
    0
  3
Dash dot (2x) ____  .  ____  .  ____  .  ___
 72
   65
 73
    4
 40
50.8
 49
25.4
 74
    0
 49
-12.7
 74
    0
 49
0
 74
    0
 49
-12.7
 74
    0
  0
LTYPE
  5
3E
330
5
100
AcDbSymbolTableRecord
100
AcDbLinetypeTableRecord
  2
DIVIDE
 70
    0
  3
Divide ____ . . ____ . . ____ . . ____ . . ____
 72
   65
 73
    6
 40
31.75
 49
12.7
 74
    0
 49
-6.35
 74
    0
 49
0
 74
    0
 49
-6.35
 74
    0
 49
0
 74
    0
 49
-6.35
 74
    0
  0
LTYPE
  5
3F
330
5
100
AcDbSymbolTableRecord
100
AcDbLinetypeTableRecord
  2
DIVIDETINY
 70
    0
  3
Divide (.15x) __..__..__..__..__..__..__..__.._
 72
   65
 73
    6
 40
4.7625
 49
1.905
 74
    0
 49
-0.9525
 74
    0
 49
0
 74
    0
 49
-0.9525
 74
    0
 49
0
 74
    0
 49
-0.9525
 74
    0
  0
LTYPE
  5
40
330
5
100
AcDbSymbolTableRecord
100
AcDbLinetypeTableRecord
  2
DIVIDE2
 70
    0
  3
Divide (.5x) __..__..__..__..__..__..__..__.._
 72
   65
 73
    6
 40
15.875
 49
6.35
 74
    0
 49
-3.175
 74
    0
 49
0
 74
    0
 49
-3.175
 74
    0
 49
0
 74
    0
 49
-3.175
 74
    0
  0
LTYPE
  5
41
330
5
100
AcDbSymbolTableRecord
100
AcDbLinetypeTableRecord
  2
DIVIDEX2
 70
    0
  3
Divide (2x) ________  .  .  ________  .  .  _
 72
   65
 73
    6
 40
63.5
 49
25.4
 74
    0
 49
-12.7
 74
    0
 49
0
 74
    0
 49
-12.7
 74
    0
 49
0
 74
    0
 49
-12.7
 74
    0
  0
LTYPE
  5
42
330
5
100
AcDbSymbolTableRecord
100
AcDbLinetypeTableRecord
  2
BORDER
 70
    0
  3
Border __ __ . __ __ . __ __ . __ __ . __ __ .
 72
   65
 73
    6
 40
44.45
 49
12.7
 74
    0
 49
-6.35
 74
    0
 49
12.7
 74
    0
 49
-6.35
 74
    0
 49
0
 74
    0
 49
-6.35
 74
    0
  0
LTYPE
  5
43
330
5
100
AcDbSymbolTableRecord
100
AcDbLinetypeTableRecord
  2
BORDERTINY
 70
    0
  3
Border (.15x) __.__.__.__.__.__.__.__.__.__.__.
 72
   65
 73
    6
 40
6.6675
 49
1.905
 74
    0
 49
-0.9525
 74
    0
 49
1.905
 74
    0
 49
-0.9525
 74
    0
 49
0
 74
    0
 49
-0.9525
 74
    0
  0
LTYPE
  5
44
330
5
100
AcDbSymbolTableRecord
100
AcDbLinetypeTableRecord
  2
BORDER2
 70
    0
  3
Border (.5x) __.__.__.__.__.__.__.__.__.__.__.
 72
   65
 73
    6
 40
22.225
 49
6.35
 74
    0
 49
-3.175
 74
    0
 49
6.35
 74
    0
 49
-3.175
 74
    0
 49
0
 74
    0
 49
-3.175
 74
    0
  0
LTYPE
  5
45
330
5
100
AcDbSymbolTableRecord
100
AcDbLinetypeTableRecord
  2
BORDERX2
 70
    0
  3
Border (2x) ____  ____  .  ____  ____  .  ___
 72
   65
 73
    6
 40
88.89999999999999
 49
25.4
 74
    0
 49
-12.7
 74
    0
 49
25.4
 74
    0
 49
-12.7
 74
    0
 49
0
 74
    0
 49
-12.7
 74
    0
  0
LTYPE
  5
46
330
5
100
AcDbSymbolTableRecord
100
AcDbLinetypeTableRecord
  2
CENTER
 70
    0
  3
Center ____ _ ____ _ ____ _ ____ _ ____ _ ____
 72
   65
 73
    4
 40
50.8
 49
31.75
 74
    0
 49
-6.35
 74
    0
 49
6.35
 74
    0
 49
-6.35
 74
    0
  0
LTYPE
  5
47
330
5
100
AcDbSymbolTableRecord
100
AcDbLinetypeTableRecord
  2
CENTERTINY
 70
    0
  3
Center (.15x) ___ _ ___ _ ___ _ ___ _ ___ _ ___
 72
   65
 73
    4
 40
7.619999999999999
 49
4.7625
 74
    0
 49
-0.9525
 74
    0
 49
0.9525
 74
    0
 49
-0.9525
 74
    0
  0
LTYPE
  5
48
330
5
100
AcDbSymbolTableRecord
100
AcDbLinetypeTableRecord
  2
CENTER2
 70
    0
  3
Center (.5x) ___ _ ___ _ ___ _ ___ _ ___ _ ___
 72
   65
 73
    4
 40
28.575
 49
19.05
 74
    0
 49
-3.175
 74
    0
 49
3.175
 74
    0
 49
-3.175
 74
    0
  0
LTYPE
  5
49
330
5
100
AcDbSymbolTableRecord
100
AcDbLinetypeTableRecord
  2
CENTERX2
 70
    0
  3
Center (2x) ________  __  ________  __  _____
 72
   65
 73
    4
 40
101.6
 49
63.5
 74
    0
 49
-12.7
 74
    0
 49
12.7
 74
    0
 49
-12.7
 74
    0
  0
ENDTAB
  0
TABLE
  2
LAYER
  5
2
330
0
100
AcDbSymbolTable
 70
    1
  0
LAYER
  5
10
330
2
100
AcDbSymbolTableRecord
100
AcDbLayerTableRecord
  2
0
 70
    0
 62
    7
  6
CONTINUOUS
370
   -3
390
F
  0
ENDTAB
  0
TABLE
  2
STYLE
  5
3
330
0
100
AcDbSymbolTable
 70
    3
  0
STYLE
  5
4A
330
2
100
AcDbSymbolTableRecord
100
AcDbTextStyleTableRecord
  2
Standard
 70
    0
 40
0
 41
1
 50
0
 71
    0
 42
1
  3
txt
  4

  0
ENDTAB
  0
TABLE
  2
VIEW
  5
6
330
0
100
AcDbSymbolTable
 70
    0
  0
ENDTAB
  0
TABLE
  2
UCS
  5
7
330
0
100
AcDbSymbolTable
 70
    0
  0
ENDTAB
  0
TABLE
  2
APPID
  5
9
330
0
100
AcDbSymbolTable
 70
    1
  0
APPID
  5
12
330
9
100
AcDbSymbolTableRecord
100
AcDbRegAppTableRecord
  2
ACAD
 70
    0
  0
APPID
  5
4B
330
9
100
AcDbSymbolTableRecord
100
AcDbRegAppTableRecord
  2
LibreCad
 70
    0
  0
ENDTAB
  0
TABLE
  2
DIMSTYLE
  5
A
330
0
100
AcDbSymbolTable
 70
    1
100
AcDbDimStyleTable
 71
    1
  0
DIMSTYLE
105
4C
330
A
100
AcDbSymbolTableRecord
100
AcDbDimStyleTableRecord
  2
Standard
 70
    0
 40
1
 41
3.556
 42
1
 43
0.38
 44
1
 45
0
 46
0
 47
0
 48
0
 49
1
140
3.5
141
0.09
142
0
143
25.4
144
1
145
0
146
1
147
1.524
148
0
 71
    0
 72
    0
 73
    1
 74
    1
 75
    0
 76
    0
 77
    0
 78
    0
 79
    0
170
    0
171
    2
172
    0
173
    0
174
    0
175
    0
176
    0
177
    0
178
    0
179
    0
271
    2
272
    4
273
    2
274
    2
275
    0
276
    0
277
    2
278
   44
279
    0
280
    0
281
    0
282
    0
283
    1
284
    0
285
    0
286
    0
288
    0
289
    3
340
standard
341

371
   -2
372
   -2
  0
ENDTAB
  0
TABLE
  2
BLOCK_RECORD
  5
1
330
0
100
AcDbSymbolTable
 70
    2
  0
BLOCK_RECORD
  5
1F
330
1
100
AcDbSymbolTableRecord
100
AcDbBlockTableRecord
  2
*Model_Space
 70
    0
280
    1
281
    0
  0
BLOCK_RECORD
  5
1E
330
1
100
AcDbSymbolTableRecord
100
AcDbBlockTableRecord
  2
*Paper_Space
 70
    0
280
    1
281
    0
  0
BLOCK_RECORD
  5
4D
330
1
100
AcDbSymbolTableRecord
100
AcDbBlockTableRecord
  2
SW_NOTE_0
 70
    0
280
    1
281
    0
  0
ENDTAB
  0
ENDSEC
  0
SECTION
  2
BLOCKS
  0
BLOCK
  5
20
330
1F
100
AcDbEntity
  8
0
100
AcDbBlockBegin
  2
*Model_Space
 70
    0
 10
0
 20
0
 30
0
  3
*Model_Space
  1

  0
ENDBLK
  5
21
330
1F
100
AcDbEntity
  8
0
100
AcDbBlockEnd
  0
BLOCK
  5
1C
330
1B
100
AcDbEntity
  8
0
100
AcDbBlockBegin
  2
*Paper_Space
 70
    0
 10
0
 20
0
 30
0
  3
*Paper_Space
  1

  0
ENDBLK
  5
1D
330
1F
100
AcDbEntity
  8
0
100
AcDbBlockEnd
  0
BLOCK
  5
4E
330
4D
100
AcDbEntity
  8
0
100
AcDbBlockBegin
  2
SW_NOTE_0
 70
    0
 10
0
 20
0
  3
SW_NOTE_0
  1

  0
ENDBLK
  5
4F
330
4D
100
AcDbEntity
  8
0
100
AcDbBlockEnd
  0
ENDSEC
  0
SECTION
  2
ENTITIES
  0
CIRCLE
  5
50
100
AcDbEntity
  8
0
  6
CONTINUOUS
 62
  255
370
   -1
100
AcDbCircle
 10
329.2468883475187
 20
123.21524853683
 40
1.600000000000023
  0
CIRCLE
  5
51
100
AcDbEntity
  8
0
  6
CONTINUOUS
 62
  255
370
   -1
100
AcDbCircle
 10
329.2468883475187
 20
123.21524853683
 40
4
  0
CIRCLE
  5
52
100
AcDbEntity
  8
0
  6
CONTINUOUS
 62
  255
370
   -1
100
AcDbCircle
 10
305.2178734087025
 20
164.7677026288588
 40
1.599999999999966
  0
CIRCLE
  5
53
100
AcDbEntity
  8
0
  6
CONTINUOUS
 62
  255
370
   -1
100
AcDbCircle
 10
305.2178734087025
 20
164.7677026288588
 40
4
  0
CIRCLE
  5
54
100
AcDbEntity
  8
0
  6
CONTINUOUS
 62
  255
370
   -1
100
AcDbCircle
 10
296.4561538320963
 20
131.9769681134364
 40
1.599999999999966
  0
CIRCLE
  5
55
100
AcDbEntity
  8
0
  6
CONTINUOUS
 62
  255
370
   -1
100
AcDbCircle
 10
296.4561538320963
 20
131.9769681134364
 40
4
  0
CIRCLE
  5
56
100
AcDbEntity
  8
0
  6
CONTINUOUS
 62
  255
370
   -1
100
AcDbCircle
 10
338.0086079241249
 20
156.0059830522525
 40
1.599999999999966
  0
CIRCLE
  5
57
100
AcDbEntity
  8
0
  6
CONTINUOUS
 62
  255
370
   -1
100
AcDbCircle
 10
338.0086079241249
 20
156.0059830522525
 40
4
  0
ARC
  5
58
100
AcDbEntity
  8
0
  6
CONTINUOUS
 62
  255
370
   -1
100
AcDbCircle
 10
273.7850000334225
 20
68.61691025921709
 40
2.000000000000017
100
AcDbArc
 50
60.04000636800005
 51
240.0400063680001
  0
ARC
  5
59
100
AcDbEntity
  8
0
  6
CONTINUOUS
 62
  255
370
   -1
100
AcDbCircle
 10
317.2323808781106
 20
143.9914755828445
 40
89.00000000000001
100
AcDbArc
 50
240.0400063680001
 51
255.040006368
  0
ARC
  5
5A
100
AcDbEntity
  8
0
  6
CONTINUOUS
 62
  255
370
   -1
100
AcDbCircle
 10
294.7738066577013
 20
59.94022666898724
 40
2.000000000000008
100
AcDbArc
 50
255.040006368
 51
75.04000636800008
  0
ARC
  5
5B
100
AcDbEntity
  8
0
  6
CONTINUOUS
 62
  255
370
   -1
100
AcDbCircle
 10
317.2323808781106
 20
143.9914755828445
 40
85
100
AcDbArc
 50
240.0400063680001
 51
255.040006368
  0
ARC
  5
5C
100
AcDbEntity
  8
0
  6
CONTINUOUS
 62
  255
370
   -1
100
AcDbCircle
 10
404.2323596700582
 20
144.0522227052649
 40
2.000000000000016
100
AcDbArc
 50
180.040006368
 51
0.04000636800007033
  0
ARC
  5
5D
100
AcDbEntity
  8
0
  6
CONTINUOUS
 62
  255
370
   -1
100
AcDbCircle
 10
317.2323808781106
 20
143.9914755828445
 40
89.00000000000001
100
AcDbArc
 50
0.04000636800007033
 51
15.04000636800011
  0
ARC
  5
5E
100
AcDbEntity
  8
0
  6
CONTINUOUS
 62
  255
370
   -1
100
AcDbCircle
 10
401.2521847675904
 20
166.5674042321386
 40
2.000000000000004
100
AcDbArc
 50
15.04000636800011
 51
195.0400063680001
  0
ARC
  5
5F
100
AcDbEntity
  8
0
  6
CONTINUOUS
 62
  255
370
   -1
100
AcDbCircle
 10
317.2323808781106
 20
143.9914755828445
 40
85.00000000000004
100
AcDbArc
 50
0.04000636800007033
 51
15.04000636800011
  0
ARC
  5
60
100
AcDbEntity
  8
0
  6
CONTINUOUS
 62
  255
370
   -1
100
AcDbCircle
 10
273.679782903256
 20
219.3052937680937
 40
2.000000000000012
100
AcDbArc
 50
300.0400063680001
 51
120.040006368
  0
ARC
  5
61
100
AcDbEntity
  8
0
  6
CONTINUOUS
 62
  255
370
   -1
100
AcDbCircle
 10
317.2323808781106
 20
143.9914755828445
 40
88.99999999999999
100
AcDbArc
 50
120.040006368
 51
135.0400063680002
  0
ARC
  5
62
100
AcDbEntity
  8
0
  6
CONTINUOUS
 62
  255
370
   -1
100
AcDbCircle
 10
255.6711512091266
 20
205.4667958474574
 40
2.000000000000011
100
AcDbArc
 50
135.0400063680002
 51
315.040006368
  0
ARC
  5
63
100
AcDbEntity
  8
0
  6
CONTINUOUS
 62
  255
370
   -1
100
AcDbCircle
 10
317.2323808781106
 20
143.9914755828445
 40
84.99999999999999
100
AcDbArc
 50
120.040006368
 51
135.0400063680002
  0
CIRCLE
  5
64
100
AcDbEntity
  8
0
  6
CONTINUOUS
 62
  255
370
   -1
100
AcDbCircle
 10
317.2966192144582
 20
51.99149800984191
 40
2.999999999999939
  0
CIRCLE
  5
65
100
AcDbEntity
  8
0
  6
CONTINUOUS
 62
  255
370
   -1
100
AcDbCircle
 10
396.8745794357681
 20
190.0470964005338
 40
3.000000000000037
  0
CIRCLE
  5
66
100
AcDbEntity
  8
0
  6
CONTINUOUS
 62
  255
370
   -1
100
AcDbCircle
 10
237.5259439841057
 20
189.9358323381579
 40
3.000000000000002
  0
CIRCLE
  5
67
100
AcDbEntity
  8
0
  6
CONTINUOUS
 62
  255
370
   -1
100
AcDbCircle
 10
317.2323808781106
 20
143.9914755828445
 40
1.999999999999992
  0
CIRCLE
  5
68
100
AcDbEntity
  8
0
  6
CONTINUOUS
 62
  255
370
   -1
100
AcDbCircle
 10
338.3095315867852
 20
33.50616561810057
 40
1.55000000000001
  0
CIRCLE
  5
69
100
AcDbEntity
  8
0
  6
CONTINUOUS
 62
  255
370
   -1
100
AcDbCircle
 10
296.3095418252257
 20
33.47683942107892
 40
1.550000000000003
  0
CIRCLE
  5
6A
100
AcDbEntity
  8
0
  6
CONTINUOUS
 62
  255
370
   -1
100
AcDbCircle
 10
402.3768906982244
 20
217.4874785183042
 40
1.549999999999981
  0
CIRCLE
  5
6B
100
AcDbEntity
  8
0
  6
CONTINUOUS
 62
  255
370
   -1
100
AcDbCircle
 10
423.4022828106648
 20
181.1290835246008
 40
1.55000000000001
  0
CIRCLE
  5
6C
100
AcDbEntity
  8
0
  6
CONTINUOUS
 62
  255
370
   -1
100
AcDbCircle
 10
211.0107203493224
 20
180.9807826121288
 40
1.550000000000003
  0
CIRCLE
  5
6D
100
AcDbEntity
  8
0
  6
CONTINUOUS
 62
  255
370
   -1
100
AcDbCircle
 10
231.9853179984414
 20
217.3685038028539
 40
1.549999999999946
  0
LINE
  5
6E
100
AcDbEntity
  8
0
  6
CONTINUOUS
 62
  255
370
   -1
100
AcDbLine
 10
309.8151244765654
 20
25.48626764889468
 11
309.8214086616699
 21
16.48626984285454
  0
LINE
  5
6F
100
AcDbEntity
  8
0
  6
CONTINUOUS
 62
  255
370
   -1
100
AcDbLine
 10
309.8214086616699
 20
16.48626984285454
 11
324.8214050050581
 21
16.49674348464953
  0
LINE
  5
70
100
AcDbEntity
  8
0
  6
CONTINUOUS
 62
  255
370
   -1
100
AcDbLine
 10
324.8214050050581
 20
16.49674348464953
 11
324.8151208200404
 21
25.49674129073992
  0
LINE
  5
71
100
AcDbEntity
  8
0
  6
CONTINUOUS
 62
  255
370
   -1
100
AcDbLine
 10
324.8151208200404
 20
25.49674129073992
 11
309.8151244765654
 21
25.48626764889468
  0
CIRCLE
  5
72
100
AcDbEntity
  8
0
  6
CONTINUOUS
 62
  255
370
   -1
100
AcDbCircle
 10
296.3182698600755
 20
20.97684246828646
 40
4.049999999999976
  0
CIRCLE
  5
73
100
AcDbEntity
  8
0
  6
CONTINUOUS
 62
  255
370
   -1
100
AcDbCircle
 10
338.3182596216348
 20
21.006168665308
 40
4.049999999999976
  0
CIRCLE
  5
74
100
AcDbEntity
  8
0
  6
CONTINUOUS
 62
  255
370
   -1
100
AcDbCircle
 10
434.2232337016407
 20
187.3866407009347
 40
4.049999999999947
  0
CIRCLE
  5
75
100
AcDbEntity
  8
0
  6
CONTINUOUS
 62
  255
370
   -1
100
AcDbCircle
 10
413.1978415892003
 20
223.7450356946381
 40
4.050000000000053
  0
LINE
  5
76
100
AcDbEntity
  8
0
  6
CONTINUOUS
 62
  255
370
   -1
100
AcDbLine
 10
218.3124885272534
 20
209.6676120199532
 11
210.515119700735
 21
214.1621686590796
  0
LINE
  5
77
100
AcDbEntity
  8
0
  6
CONTINUOUS
 62
  255
370
   -1
100
AcDbLine
 10
210.515119700735
 20
214.1621686590796
 11
203.0241919688953
 21
201.1665539480832
  0
LINE
  5
78
100
AcDbEntity
  8
0
  6
CONTINUOUS
 62
  255
370
   -1
100
AcDbLine
 10
203.0241919688953
 20
201.1665539480832
 11
210.8215607954137
 21
196.6719973089569
  0
LINE
  5
79
100
AcDbEntity
  8
0
  6
CONTINUOUS
 62
  255
370
   -1
100
AcDbLine
 10
210.8215607954137
 20
196.6719973089569
 11
218.3124885272534
 21
209.6676120199532
  0
LINE
  5
7A
100
AcDbEntity
  8
0
  6
CONTINUOUS
 62
  255
370
   -1
100
AcDbLine
 10
291.2274292034783
 20
37.67073386683478
 11
284.218963819006
 21
49.79019808579534
  0
ARC
  5
7B
100
AcDbEntity
  8
0
  6
CONTINUOUS
 62
  255
370
   -1
100
AcDbCircle
 10
283.3532878033731
 20
49.28959341546346
 40
1.00000000000001
100
AcDbArc
 50
30.04001273600007
 51
120.0400127360001
  0
LINE
  5
7C
100
AcDbEntity
  8
0
  6
CONTINUOUS
 62
  255
370
   -1
100
AcDbLine
 10
282.8526831330412
 20
50.15526943109637
 11
273.3302346416791
 21
44.64861093348088
  0
LINE
  5
7D
100
AcDbEntity
  8
0
  6
CONTINUOUS
 62
  255
370
   -1
100
AcDbLine
 10
242.021867133787
 20
98.78897028156769
 11
273.3302346416791
 21
44.64861093348088
  0
LINE
  5
7E
100
AcDbEntity
  8
0
  6
CONTINUOUS
 62
  255
370
   -1
100
AcDbLine
 10
248.6883964754227
 20
102.6441017707605
 11
249.699617715109
 21
100.8954361067733
  0
LINE
  5
7F
100
AcDbEntity
  8
0
  6
CONTINUOUS
 62
  255
370
   -1
100
AcDbLine
 10
249.699617715109
 20
100.8954361067733
 11
250.1324557507839
 21
101.1457383937644
  0
LINE
  5
80
100
AcDbEntity
  8
0
  6
CONTINUOUS
 62
  255
370
   -1
100
AcDbLine
 10
250.1324557507839
 20
101.1457383937644
 11
249.7570023201675
 21
101.7949954472019
  0
LINE
  5
81
100
AcDbEntity
  8
0
  6
CONTINUOUS
 62
  255
370
   -1
100
AcDbLine
 10
249.7570023201675
 20
101.7949954472019
 11
251.9211924983427
 21
103.0465068825033
  0
LINE
  5
82
100
AcDbEntity
  8
0
  6
CONTINUOUS
 62
  255
370
   -1
100
AcDbLine
 10
251.9211924983427
 20
103.0465068825033
 11
251.2854246892729
 21
104.1459154930529
  0
LINE
  5
83
100
AcDbEntity
  8
0
  6
CONTINUOUS
 62
  255
370
   -1
100
AcDbLine
 10
251.2854246892729
 20
104.1459154930529
 11
253.0167768318231
 21
105.1471246412768
  0
LINE
  5
84
100
AcDbEntity
  8
0
  6
CONTINUOUS
 62
  255
370
   -1
100
AcDbLine
 10
253.0167768318231
 20
105.1471246412768
 11
251.5349872924553
 21
107.709525812253
  0
LINE
  5
85
100
AcDbEntity
  8
0
  6
CONTINUOUS
 62
  255
370
   -1
100
AcDbLine
 10
251.5349872924553
 20
107.709525812253
 11
249.8036351499052
 21
106.7083166640292
  0
LINE
  5
86
100
AcDbEntity
  8
0
  6
CONTINUOUS
 62
  255
370
   -1
100
AcDbLine
 10
249.8036351499052
 20
106.7083166640292
 11
249.1678673407489
 21
107.8077252745287
  0
LINE
  5
87
100
AcDbEntity
  8
0
  6
CONTINUOUS
 62
  255
370
   -1
100
AcDbLine
 10
247.0036771625738
 20
106.5562138392274
 11
246.6282237320439
 21
107.205470892715
  0
LINE
  5
88
100
AcDbEntity
  8
0
  6
CONTINUOUS
 62
  255
370
   -1
100
AcDbLine
 10
246.6282237320439
 20
107.205470892715
 11
246.1953856963688
 21
106.9551686057239
  0
LINE
  5
89
100
AcDbEntity
  8
0
  6
CONTINUOUS
 62
  255
370
   -1
100
AcDbLine
 10
246.1953856963688
 20
106.9551686057239
 11
247.206606936055
 21
105.2065029417367
  0
LINE
  5
8A
100
AcDbEntity
  8
0
  6
CONTINUOUS
 62
  255
370
   -1
100
AcDbLine
 10
247.206606936055
 20
105.2065029417367
 11
240.5400778792266
 21
101.3513716172428
  0
LINE
  5
8B
100
AcDbEntity
  8
0
  6
CONTINUOUS
 62
  255
370
   -1
100
AcDbLine
 10
209.2317103714345
 20
155.4917309651563
 11
240.5400778792266
 21
101.3513716172428
  0
LINE
  5
8C
100
AcDbEntity
  8
0
  6
CONTINUOUS
 62
  255
370
   -1
100
AcDbLine
 10
209.2317103714345
 20
155.4917309651563
 11
218.7541477675244
 21
160.9983802219683
  0
ARC
  5
8D
100
AcDbEntity
  8
0
  6
CONTINUOUS
 62
  255
370
   -1
100
AcDbCircle
 10
218.2535432896324
 20
161.8640563488857
 40
1.000000000000014
100
AcDbArc
 50
300.0400000000002
 51
30.04000000000012
  0
LINE
  5
8E
100
AcDbEntity
  8
0
  6
CONTINUOUS
 62
  255
370
   -1
100
AcDbLine
 10
219.1192194165498
 20
162.3646608267777
 11
212.1107567260617
 21
174.4841266036194
  0
ARC
  5
8F
100
AcDbEntity
  8
0
  6
CONTINUOUS
 62
  255
370
   -1
100
AcDbCircle
 10
211.2450805991444
 20
173.9835221257272
 40
1
100
AcDbArc
 50
30.04000000000012
 51
120.0400000000002
  0
LINE
  5
90
100
AcDbEntity
  8
0
  6
CONTINUOUS
 62
  255
370
   -1
100
AcDbLine
 10
210.7444761212524
 20
174.8491982526446
 11
201.2220387251625
 21
169.3425489958325
  0
LINE
  5
91
100
AcDbEntity
  8
0
  6
CONTINUOUS
 62
  255
370
   -1
100
AcDbLine
 10
193.2123670788905
 20
183.1933670265088
 11
201.2220387251625
 21
169.3425489958325
  0
LINE
  5
92
100
AcDbEntity
  8
0
  6
CONTINUOUS
 62
  255
370
   -1
100
AcDbLine
 10
190.6153386981387
 20
181.6915535928327
 11
193.2123670788905
 21
183.1933670265088
  0
ARC
  5
93
100
AcDbEntity
  8
0
  6
CONTINUOUS
 62
  255
370
   -1
100
AcDbCircle
 10
200.1810414234966
 20
187.2232223885875
 40
11.04997865595634
100
AcDbArc
 50
150.0400063680001
 51
210.0400000000001
  0
LINE
  5
94
100
AcDbEntity
  8
0
  6
CONTINUOUS
 62
  255
370
   -1
100
AcDbLine
 10
211.5822213941655
 20
229.1292496827149
 11
190.6076237450463
 21
192.7415284919899
  0
ARC
  5
95
100
AcDbEntity
  8
0
  6
CONTINUOUS
 62
  255
370
   -1
100
AcDbCircle
 10
221.1556390727022
 20
223.6109435793624
 40
11.0499786559563
100
AcDbArc
 50
90.04000636800006
 51
150.0400063680001
  0
LINE
  5
96
100
AcDbEntity
  8
0
  6
CONTINUOUS
 62
  255
370
   -1
100
AcDbLine
 10
221.1500182182169
 20
231.6609416169554
 11
221.1479235048176
 21
234.6609195416563
  0
LINE
  5
97
100
AcDbEntity
  8
0
  6
CONTINUOUS
 62
  255
370
   -1
100
AcDbLine
 10
314.566120111534
 20
231.7261687522021
 11
221.1500182182169
 21
231.6609416169554
  0
LINE
  5
98
100
AcDbEntity
  8
0
  6
CONTINUOUS
 62
  255
370
   -1
100
AcDbLine
 10
314.566120111534
 20
231.7261687522021
 11
314.5719507746411
 21
223.3756898406698
  0
LINE
  5
99
100
AcDbEntity
  8
0
  6
CONTINUOUS
 62
  255
370
   -1
100
AcDbLine
 10
314.5719507746411
 20
223.3756898406698
 11
312.5519512670435
 21
223.3742793902657
  0
LINE
  5
9A
100
AcDbEntity
  8
0
  6
CONTINUOUS
 62
  255
370
   -1
100
AcDbLine
 10
312.5519512670435
 20
223.3742793902657
 11
312.5523003884252
 21
222.8742795121193
  0
LINE
  5
9B
100
AcDbEntity
  8
0
  6
CONTINUOUS
 62
  255
370
   -1
100
AcDbLine
 10
312.5523003884252
 20
222.8742795121193
 11
313.3023002055767
 21
222.87480319421
  0
LINE
  5
9C
100
AcDbEntity
  8
0
  6
CONTINUOUS
 62
  255
370
   -1
100
AcDbLine
 10
313.3023002055767
 20
222.87480319421
 11
313.304045812522
 21
220.3748038036143
  0
LINE
  5
9D
100
AcDbEntity
  8
0
  6
CONTINUOUS
 62
  255
370
   -1
100
AcDbLine
 10
313.304045812522
 20
220.3748038036143
 11
314.5740455029683
 21
220.3756905719275
  0
LINE
  5
9E
100
AcDbEntity
  8
0
  6
CONTINUOUS
 62
  255
370
   -1
100
AcDbLine
 10
314.5740455029683
 20
220.3756905719275
 11
314.5754419885317
 21
218.3756910594781
  0
LINE
  5
9F
100
AcDbEntity
  8
0
  6
CONTINUOUS
 62
  255
370
   -1
100
AcDbLine
 10
314.5754419885317
 20
218.3756910594781
 11
317.5354412669776
 21
218.3777578581243
  0
LINE
  5
A0
100
AcDbEntity
  8
0
  6
CONTINUOUS
 62
  255
370
   -1
100
AcDbLine
 10
317.5354412669776
 20
218.3777578581243
 11
317.534044781414
 21
220.3777573705736
  0
LINE
  5
A1
100
AcDbEntity
  8
0
  6
CONTINUOUS
 62
  255
370
   -1
100
AcDbLine
 10
317.534044781414
 20
220.3777573705736
 11
318.8040444718101
 21
220.3786441389733
  0
LINE
  5
A2
100
AcDbEntity
  8
0
  6
CONTINUOUS
 62
  255
370
   -1
100
AcDbLine
 10
318.8040444718101
 20
220.3786441389733
 11
318.8022988648647
 21
222.8786435295692
  0
LINE
  5
A3
100
AcDbEntity
  8
0
  6
CONTINUOUS
 62
  255
370
   -1
100
AcDbLine
 10
318.8022988648647
 20
222.8786435295692
 11
319.5522986820162
 21
222.8791672116602
  0
LINE
  5
A4
100
AcDbEntity
  8
0
  6
CONTINUOUS
 62
  255
370
   -1
100
AcDbLine
 10
319.5522986820162
 20
222.8791672116602
 11
319.5519495606845
 21
223.37916708972
  0
LINE
  5
A5
100
AcDbEntity
  8
0
  6
CONTINUOUS
 62
  255
370
   -1
100
AcDbLine
 10
319.5519495606845
 20
223.37916708972
 11
317.5319500530869
 21
223.377756639316
  0
LINE
  5
A6
100
AcDbEntity
  8
0
  6
CONTINUOUS
 62
  255
370
   -1
100
AcDbLine
 10
317.5319500530869
 20
223.377756639316
 11
317.52611938998
 21
231.7282355508482
  0
LINE
  5
A7
100
AcDbEntity
  8
0
  6
CONTINUOUS
 62
  255
370
   -1
100
AcDbLine
 10
413.1922207348015
 20
231.7950337322811
 11
317.52611938998
 21
231.7282355508482
  0
LINE
  5
A8
100
AcDbEntity
  8
0
  6
CONTINUOUS
 62
  255
370
   -1
100
AcDbLine
 10
413.1901260213158
 20
234.795011656932
 11
413.1922207348015
 21
231.7950337322811
  0
ARC
  5
A9
100
AcDbEntity
  8
0
  6
CONTINUOUS
 62
  255
370
   -1
100
AcDbCircle
 10
413.1978415892003
 20
223.7450356946381
 40
11.04997865595642
100
AcDbArc
 50
30.04000636800009
 51
90.04000636800006
  0
LINE
  5
AA
100
AcDbEntity
  8
0
  6
CONTINUOUS
 62
  255
370
   -1
100
AcDbLine
 10
443.788935812293
 20
192.9183105598762
 11
422.7635436998526
 21
229.2767055535795
  0
ARC
  5
AB
100
AcDbEntity
  8
0
  6
CONTINUOUS
 62
  255
370
   -1
100
AcDbCircle
 10
434.2232337016407
 20
187.3866407009347
 40
11.04997865595631
100
AcDbArc
 50
330.040006368
 51
30.04000636800009
  0
LINE
  5
AC
100
AcDbEntity
  8
0
  6
CONTINUOUS
 62
  255
370
   -1
100
AcDbLine
 10
441.1975469298327
 20
183.3665094848428
 11
443.7966513801275
 21
181.868334597669
  0
LINE
  5
AD
100
AcDbEntity
  8
0
  6
CONTINUOUS
 62
  255
370
   -1
100
AcDbLine
 10
393.9841647593687
 20
101.4585074518406
 11
441.1975469298327
 21
183.3665094848428
  0
LINE
  5
AE
100
AcDbEntity
  8
0
  6
CONTINUOUS
 62
  255
370
   -1
100
AcDbLine
 10
393.9841647593687
 20
101.4585074518406
 11
386.1867959328504
 21
105.9530640909671
  0
LINE
  5
AF
100
AcDbEntity
  8
0
  6
CONTINUOUS
 62
  255
370
   -1
100
AcDbLine
 10
386.1867959328504
 20
105.9530640909671
 11
387.1955742007618
 21
107.7031402053583
  0
LINE
  5
B0
100
AcDbEntity
  8
0
  6
CONTINUOUS
 62
  255
370
   -1
100
AcDbLine
 10
386.7623870436684
 20
107.9528377963772
 11
386.3878406571333
 21
107.3030570608487
  0
LINE
  5
B1
100
AcDbEntity
  8
0
  6
CONTINUOUS
 62
  255
370
   -1
100
AcDbLine
 10
386.3878406571333
 20
107.3030570608487
 11
384.2219048718762
 21
108.5515450161797
  0
LINE
  5
B2
100
AcDbEntity
  8
0
  6
CONTINUOUS
 62
  255
370
   -1
100
AcDbLine
 10
384.2219048718762
 20
108.5515450161797
 11
383.5876729906362
 21
107.4512496372804
  0
LINE
  5
B3
100
AcDbEntity
  8
0
  6
CONTINUOUS
 62
  255
370
   -1
100
AcDbLine
 10
381.8549243624726
 20
108.4500400015925
 11
380.3767146233946
 21
105.8855720319701
  0
LINE
  5
B4
100
AcDbEntity
  8
0
  6
CONTINUOUS
 62
  255
370
   -1
100
AcDbLine
 10
380.3767146233946
 20
105.8855720319701
 11
382.1094632515585
 21
104.886781667658
  0
LINE
  5
B5
100
AcDbEntity
  8
0
  6
CONTINUOUS
 62
  255
370
   -1
100
AcDbLine
 10
382.1094632515585
 20
104.886781667658
 11
381.4752313702685
 21
103.7864862888453
  0
LINE
  5
B6
100
AcDbEntity
  8
0
  6
CONTINUOUS
 62
  255
370
   -1
100
AcDbLine
 10
381.4752313702685
 20
103.7864862888453
 11
383.641167155389
 21
102.5379983335508
  0
LINE
  5
B7
100
AcDbEntity
  8
0
  6
CONTINUOUS
 62
  255
370
   -1
100
AcDbLine
 10
383.641167155389
 20
102.5379983335508
 11
383.2666207687674
 21
101.8882175979724
  0
LINE
  5
B8
100
AcDbEntity
  8
0
  6
CONTINUOUS
 62
  255
370
   -1
100
AcDbLine
 10
383.2666207687674
 20
101.8882175979724
 11
383.6998079258607
 21
101.6385200069535
  0
LINE
  5
B9
100
AcDbEntity
  8
0
  6
CONTINUOUS
 62
  255
370
   -1
100
AcDbLine
 10
383.6998079258607
 20
101.6385200069535
 11
384.7085861937722
 21
103.3885961213447
  0
LINE
  5
BA
100
AcDbEntity
  8
0
  6
CONTINUOUS
 62
  255
370
   -1
100
AcDbLine
 10
384.7085861937722
 20
103.3885961213447
 11
392.5059550202907
 21
98.89403948221832
  0
LINE
  5
BB
100
AcDbEntity
  8
0
  6
CONTINUOUS
 62
  255
370
   -1
100
AcDbLine
 10
345.2925728498768
 20
16.98603744912941
 11
392.5059550202907
 21
98.89403948221832
  0
LINE
  5
BC
100
AcDbEntity
  8
0
  6
CONTINUOUS
 62
  255
370
   -1
100
AcDbLine
 10
347.8916773001715
 20
15.48786256195569
 11
345.2925728498768
 21
16.98603744912941
  0
ARC
  5
BD
100
AcDbEntity
  8
0
  6
CONTINUOUS
 62
  255
370
   -1
100
AcDbCircle
 10
338.3182596216348
 20
21.006168665308
 40
11.0499786559563
100
AcDbArc
 50
272.9802718820999
 51
330.040006368
  0
LINE
  5
BE
100
AcDbEntity
  8
0
  6
CONTINUOUS
 62
  255
370
   -1
100
AcDbLine
 10
296.3294974049617
 20
9.926869516255977
 11
338.892771265724
 21
9.971135150654163
  0
ARC
  5
BF
100
AcDbEntity
  8
0
  6
CONTINUOUS
 62
  255
370
   -1
100
AcDbCircle
 10
296.3182698600755
 20
20.97684246828646
 40
11.04997865595634
100
AcDbArc
 50
210.0400000000001
 51
270.0582164971002
  0
LINE
  5
C0
100
AcDbEntity
  8
0
  6
CONTINUOUS
 62
  255
370
   -1
100
AcDbLine
 10
289.3495770383914
 20
16.94697642125573
 11
286.7525671346309
 21
15.44517367248181
  0
LINE
  5
C1
100
AcDbEntity
  8
0
  6
CONTINUOUS
 62
  255
370
   -1
100
AcDbLine
 10
281.339906287851
 20
30.79779290297773
 11
289.3495770383914
 21
16.94697642125573
  0
LINE
  5
C2
100
AcDbEntity
  8
0
  6
CONTINUOUS
 62
  255
370
   -1
100
AcDbLine
 10
281.339906287851
 20
30.79779290297773
 11
290.8623578580905
 21
36.30445318082002
  0
ARC
  5
C3
100
AcDbEntity
  8
0
  6
CONTINUOUS
 62
  255
370
   -1
100
AcDbCircle
 10
290.3617531878452
 20
37.1701291965029
 40
0.999999999999982
100
AcDbArc
 50
300.040012736
 51
30.04001273600007
  0
CIRCLE
  5
C4
100
AcDbEntity
  8
0
  6
CONTINUOUS
 62
  255
370
   -1
100
AcDbCircle
 10
221.1556390727022
 20
223.6109435793624
 40
4.050000000000025
  0
CIRCLE
  5
C5
100
AcDbEntity
  8
0
  6
CONTINUOUS
 62
  255
370
   -1
100
AcDbCircle
 10
200.1810414234966
 20
187.2232223885875
 40
4.049999999999976
  0
LINE
  5
C6
100
AcDbEntity
  8
0
  6
CONTINUOUS
 62
  255
370
   -1
100
AcDbLine
 10
423.5695296304629
 20
196.8205470797722
 11
431.3606142719635
 21
201.3259882467361
  0
LINE
  5
C7
100
AcDbEntity
  8
0
  6
CONTINUOUS
 62
  255
370
   -1
100
AcDbLine
 10
431.3606142719635
 20
201.3259882467361
 11
423.8515456603282
 21
214.3111293158872
  0
LINE
  5
C8
100
AcDbEntity
  8
0
  6
CONTINUOUS
 62
  255
370
   -1
100
AcDbLine
 10
423.8515456603282
 20
214.3111293158872
 11
416.0604610188276
 21
209.8056881489233
  0
LINE
  5
C9
100
AcDbEntity
  8
0
  6
CONTINUOUS
 62
  255
370
   -1
100
AcDbLine
 10
416.0604610188276
 20
209.8056881489233
 11
423.5695296304629
 21
196.8205470797722
  0
CIRCLE
  5
CA
100
AcDbEntity
  8
0
  6
CONTINUOUS
 62
  255
370
   -1
100
AcDbCircle
 10
221.7158676094119
 20
141.8936966162368
 40
1.49999999999997
  0
CIRCLE
  5
CB
100
AcDbEntity
  8
0
  6
CONTINUOUS
 62
  255
370
   -1
100
AcDbCircle
 10
267.7714795754762
 20
62.2514929398485
 40
1.500000000000026
  0
CIRCLE
  5
CC
100
AcDbEntity
  8
0
  6
CONTINUOUS
 62
  255
370
   -1
100
AcDbCircle
 10
367.3242341709616
 20
119.8210078974289
 40
1.500000000000019
  0
CIRCLE
  5
CD
100
AcDbEntity
  8
0
  6
CONTINUOUS
 62
  255
370
   -1
100
AcDbCircle
 10
321.2686222048973
 20
199.4632115738172
 40
1.500000000000033
  0
ARC
  5
CE
100
AcDbEntity
  8
0
  6
CONTINUOUS
 62
  255
370
   -1
100
AcDbCircle
 10
317.2323808781106
 20
143.9914755828445
 40
88.99999999999999
100
AcDbArc
 50
165.040006368
 51
180.040006368
  0
ARC
  5
CF
100
AcDbEntity
  8
0
  6
CONTINUOUS
 62
  255
370
   -1
100
AcDbCircle
 10
230.2324020862496
 20
143.9307284604741
 40
2.000000000000004
100
AcDbArc
 50
180.040006368
 51
0.04000636800007033
  0
ARC
  5
D0
100
AcDbEntity
  8
0
  6
CONTINUOUS
 62
  255
370
   -1
100
AcDbCircle
 10
317.2323808781106
 20
143.9914755828445
 40
85
100
AcDbArc
 50
165.040006368
 51
180.040006368
  0
ARC
  5
D1
100
AcDbEntity
  8
0
  6
CONTINUOUS
 62
  255
370
   -1
100
AcDbCircle
 10
233.1811319642535
 20
166.4500498032538
 40
2.000000000000039
100
AcDbArc
 50
345.040006368
 51
165.040006368
  0
ARC
  5
D2
100
AcDbEntity
  8
0
  6
CONTINUOUS
 62
  255
370
   -1
100
AcDbCircle
 10
317.2323808781106
 20
143.9914755828445
 40
89.00000000000004
100
AcDbArc
 50
45.04000636800007
 51
60.04000636800005
  0
ARC
  5
D3
100
AcDbEntity
  8
0
  6
CONTINUOUS
 62
  255
370
   -1
100
AcDbCircle
 10
360.6797617228851
 20
219.3660409065219
 40
2.000000000000041
100
AcDbArc
 50
60.04000636800005
 51
240.0400063680001
  0
ARC
  5
D4
100
AcDbEntity
  8
0
  6
CONTINUOUS
 62
  255
370
   -1
100
AcDbCircle
 10
317.2323808781106
 20
143.9914755828445
 40
85
100
AcDbArc
 50
45.04000636800007
 51
60.04000636800005
  0
ARC
  5
D5
100
AcDbEntity
  8
0
  6
CONTINUOUS
 62
  255
370
   -1
100
AcDbCircle
 10
378.7077011427236
 20
205.5527052518286
 40
2.000000000000044
100
AcDbArc
 50
225.0400063680002
 51
45.04000636800007
  0
ARC
  5
D6
100
AcDbEntity
  8
0
  6
CONTINUOUS
 62
  255
370
   -1
100
AcDbCircle
 10
317.2323808781106
 20
143.9914755828445
 40
89.00000000000004
100
AcDbArc
 50
285.0400063680002
 51
300.0400063680001
  0
ARC
  5
D7
100
AcDbEntity
  8
0
  6
CONTINUOUS
 62
  255
370
   -1
100
AcDbCircle
 10
360.7849788529653
 20
68.67765739759523
 40
2.000000000000069
100
AcDbArc
 50
300.0400063680001
 51
120.040006368
  0
ARC
  5
D8
100
AcDbEntity
  8
0
  6
CONTINUOUS
 62
  255
370
   -1
100
AcDbCircle
 10
317.2323808781106
 20
143.9914755828445
 40
84.99999999999999
100
AcDbArc
 50
285.0400063680002
 51
300.0400063680001
  0
ARC
  5
D9
100
AcDbEntity
  8
0
  6
CONTINUOUS
 62
  255
370
   -1
100
AcDbCircle
 10
339.808309527405
 20
59.97167169336473
 40
2.000000000000019
100
AcDbArc
 50
105.040006368
 51
285.0400063680002
  0
LINE
  5
DA
100
AcDbEntity
  8
0
  6
CONTINUOUS
 62
  255
370
   -1
100
AcDbLine
 10
249.1678673407489
 20
107.8077252745287
 11
247.0036771625738
 21
106.5562138392274
  0
LINE
  5
DB
100
AcDbEntity
  8
0
  6
CONTINUOUS
 62
  255
370
   -1
100
AcDbLine
 10
242.021867133787
 20
98.78897028156769
 11
248.6883964754227
 21
102.6441017707605
  0
LINE
  5
DC
100
AcDbEntity
  8
0
  6
CONTINUOUS
 62
  255
370
   -1
100
AcDbLine
 10
387.1955742007618
 20
107.7031402053583
 11
386.7623870436684
 21
107.9528377963772
  0
LINE
  5
DD
100
AcDbEntity
  8
0
  6
CONTINUOUS
 62
  255
370
   -1
100
AcDbLine
 10
383.5876729906362
 20
107.4512496372804
 11
381.8549243624726
 21
108.4500400015925
  0
CIRCLE
  5
DE
100
AcDbEntity
  8
0
  6
ByLayer
 62
  256
370
   -1
100
AcDbCircle
 10
262
 20
236
 40
1
  0
CIRCLE
  5
DF
100
AcDbEntity
  8
0
  6
ByLayer
 62
  256
370
   -1
100
AcDbCircle
 10
262
 20
10
 40
1
  0
ENDSEC
  0
SECTION
  2
OBJECTS
  0
DICTIONARY
  5
C
330
0
100
AcDbDictionary
281
    1
  3
ACAD_GROUP
350
D
  0
DICTIONARY
  5
D
330
C
100
AcDbDictionary
281
    1
  0
ENDSEC
  0
EOF
